<?xml version="1.0" encoding="UTF-8" standalone="no"?>
<!-- Created with Inkscape (http://www.inkscape.org/) -->

<svg
   xmlns:dc="http://purl.org/dc/elements/1.1/"
   xmlns:cc="http://creativecommons.org/ns#"
   xmlns:rdf="http://www.w3.org/1999/02/22-rdf-syntax-ns#"
   xmlns:svg="http://www.w3.org/2000/svg"
   xmlns="http://www.w3.org/2000/svg"
   xmlns:sodipodi="http://sodipodi.sourceforge.net/DTD/sodipodi-0.dtd"
   xmlns:inkscape="http://www.inkscape.org/namespaces/inkscape"
   width="300"
   height="150"
   viewBox="0 0 79.375002 39.687501"
   version="1.1"
   id="svg8"
   inkscape:version="0.92.3 (2405546, 2018-03-11)"
   sodipodi:docname="bookworm_logo.svg">
  <defs
     id="defs2" />
  <sodipodi:namedview
     id="base"
     pagecolor="#ffffff"
     bordercolor="#666666"
     borderopacity="1.0"
     inkscape:pageopacity="0.0"
     inkscape:pageshadow="2"
     inkscape:zoom="0.98994949"
     inkscape:cx="72.114321"
     inkscape:cy="122.74119"
     inkscape:document-units="px"
     inkscape:current-layer="layer1"
     showgrid="true"
     units="px"
     inkscape:window-width="1600"
     inkscape:window-height="877"
     inkscape:window-x="1358"
     inkscape:window-y="-8"
     inkscape:window-maximized="1"
     showguides="true"
     inkscape:guide-bbox="true">
    <inkscape:grid
       type="xygrid"
       id="grid827" />
  </sodipodi:namedview>
  <metadata
     id="metadata5">
    <rdf:RDF>
      <cc:Work
         rdf:about="">
        <dc:format>image/svg+xml</dc:format>
        <dc:type
           rdf:resource="http://purl.org/dc/dcmitype/StillImage" />
        <dc:title></dc:title>
      </cc:Work>
    </rdf:RDF>
  </metadata>
  <g
     inkscape:label="Layer 1"
     inkscape:groupmode="layer"
     id="layer1"
     transform="translate(0,-257.31249)">
    <text
       xml:space="preserve"
       style="font-style:normal;font-weight:normal;font-size:10.58333302px;line-height:1.25;font-family:sans-serif;letter-spacing:0px;word-spacing:0px;fill:#000000;fill-opacity:1;stroke:none;stroke-width:0.26458332"
       x="2.6726952"
       y="199.17934"
       id="text825"><tspan
         sodipodi:role="line"
         id="tspan823"
         x="2.6726952"
         y="208.83484"
         style="stroke-width:0.26458332" /></text>
    <text
       xml:space="preserve"
       style="font-style:normal;font-weight:normal;font-size:21.02606583px;line-height:1.25;font-family:sans-serif;letter-spacing:0px;word-spacing:0px;fill:#008080;fill-opacity:1;stroke:none;stroke-width:0.52565163"
       x="9.2150421"
       y="301.25391"
       id="text970"
       transform="matrix(1.0388814,-7.8340815e-4,8.4551298e-4,0.96257316,0,0)"><tspan
         sodipodi:role="line"
         x="9.2150421"
         y="301.25391"
         id="tspan968"
         style="font-style:normal;font-variant:normal;font-weight:normal;font-stretch:normal;font-size:12.92714977px;font-family:Calibri;-inkscape-font-specification:'Calibri, Normal';font-variant-ligatures:normal;font-variant-caps:normal;font-variant-numeric:normal;font-feature-settings:normal;text-align:start;writing-mode:lr-tb;text-anchor:start;fill:#008080;stroke-width:0.52565163"><tspan
           x="9.2150421"
           y="301.25391"
           style="font-style:normal;font-variant:normal;font-weight:normal;font-stretch:normal;font-size:12.92714977px;font-family:Calibri;-inkscape-font-specification:'Calibri, Normal';font-variant-ligatures:normal;font-variant-caps:normal;font-variant-numeric:normal;font-feature-settings:normal;text-align:start;writing-mode:lr-tb;text-anchor:start;fill:#008080;fill-opacity:1;stroke-width:0.52565163"
           id="tspan966">Bookworm</tspan></tspan></text>
    <g
       id="g861"
       transform="matrix(1.0286703,0,0,0.99563255,-0.17108857,4.0910417)">
      <path
         inkscape:connector-curvature="0"
         id="path829"
         d="m 2.738411,272.19536 c 0,0 0,-10.43428 8.077741,-10.43428 8.077742,0 8.077742,5.21714 8.077742,5.21714 0,0 0,5.21714 6.058307,5.21714 6.058306,0 6.058306,-5.21714 6.058306,-5.21714 0,0 0,-5.21714 8.077741,-5.21714 8.077742,0 8.077742,5.21714 8.077742,5.21714 0,0 0,5.21714 8.077741,5.21714 8.077742,0 8.077742,-5.21714 8.077742,-5.21714 0,0 0,-5.21714 6.058307,-5.21714 6.058306,0 6.058306,10.43428 6.058306,10.43428 0,0 0,2.60858 -2.019436,0 -2.019434,-2.60856 0,-2.60856 -4.03887,-7.82572 -4.038871,-5.21714 0,0 0,0 0,0 -4.038871,0 -4.038871,7.82572 0,7.82572 -18.174919,2.60858 -18.174919,2.60858 0,0 -4.038872,-2.60858 -4.038872,-7.82572 0,-5.21714 0,0 0,0 0,0 -2.019434,-5.21714 -8.077741,0 0,0 2e-6,7.82572 -8.07774,7.82572 -8.077743,0 -8.077743,0 -10.097177,-2.60858 -2.019436,-2.60856 -2.019436,-2.60856 -2.019436,-2.60856 0,0 -2.019436,-5.21716 -6.0583066,-2.60858 -4.0388704,2.60858 -4.0388704,5.21714 -4.0388704,5.21714 v 0 c 0,0 -2.019436,5.21714 -2.019436,0 z"
         style="fill:none;stroke:#000000;stroke-width:0.45903566px;stroke-linecap:butt;stroke-linejoin:miter;stroke-opacity:1" />
      <path
         inkscape:connector-curvature="0"
         id="path833"
         d="m 54.272436,275.91685 c -1.811643,-0.25267 -3.945242,-0.65865 -5.607112,-1.06694 -1.232255,-0.30274 -1.482823,-0.40998 -2.034852,-0.87086 -1.313537,-1.09665 -2.499685,-2.98098 -2.951182,-4.68826 -0.187032,-0.70724 -0.243722,-1.27216 -0.286788,-2.85778 -0.05066,-1.86534 -0.06512,-1.97629 -0.257668,-1.97629 -0.177048,0 -0.208055,0.10108 -0.23476,0.76525 l -0.03078,0.76526 -0.37257,-0.42256 c -0.669454,-0.75926 -1.383733,-1.09037 -2.480262,-1.14974 -0.772761,-0.0418 -1.140852,0.005 -1.764764,0.22651 -0.874,0.30973 -1.957871,0.94265 -2.827921,1.65135 l -0.571262,0.46532 -0.12138,0.94941 c -0.39255,3.07042 -2.18702,5.44772 -4.759834,6.30578 -1.37236,0.45769 -3.294507,0.57656 -6.776874,0.41912 -3.265156,-0.14762 -3.941501,-0.26976 -4.685999,-0.84617 -0.53452,-0.41385 -3.327993,-4.00393 -3.78426,-4.86341 -0.513918,-0.96807 -1.197739,-1.73352 -2.010267,-2.25022 -0.838284,-0.53308 -2.008289,-0.65568 -2.9352942,-0.30757 -1.3572464,0.50967 -3.1245998,1.93417 -4.1409978,3.33768 -0.5869004,0.81043 -1.1053824,1.93881 -1.1076159,2.41054 -0.00121,0.26106 -0.7074769,1.6766 -1.0077872,2.01995 -0.3843874,0.43947 -0.4725115,0.12457 -0.4693006,-1.67691 0.00364,-1.94641 0.2400745,-3.24335 0.9258344,-5.07493 0.3520765,-0.94036 0.6353508,-1.46488 1.2096136,-2.2398 1.6947466,-2.28689 3.5151505,-3.00625 6.9962407,-2.76467 2.933295,0.20358 5.217147,1.45757 6.067249,3.33135 0.144462,0.31842 0.3184,1.02252 0.399141,1.61575 0.176753,1.29858 0.357998,1.87125 0.868899,2.74535 0.81884,1.40094 2.282572,2.27331 4.295238,2.55992 2.385087,0.33964 4.801495,-0.38657 6.020749,-1.80944 0.825004,-0.96279 1.223269,-1.96482 1.422171,-3.57818 0.394557,-3.20035 3.092022,-4.89996 7.777311,-4.90031 2.578629,-1.9e-4 3.947216,0.30094 5.445508,1.19817 1.42863,0.85551 2.238989,2.09804 2.460044,3.77199 0.352339,2.66806 2.174714,4.40635 5.373637,5.1257 1.366277,0.30723 4.403593,0.31627 5.767088,0.0172 3.35908,-0.73688 5.191443,-2.51743 5.502057,-5.34647 0.237675,-2.16473 1.229739,-3.57768 3.030659,-4.31643 l 0.783981,-0.32159 0.714461,0.9229 c 0.613355,0.79229 0.686357,0.93387 0.51586,1.00043 -0.629272,0.24566 -1.513211,0.95097 -1.964801,1.56776 -0.94865,1.29568 -1.405204,2.97526 -1.540333,5.66659 -0.07124,1.41887 -0.118306,1.71921 -0.349164,2.22806 -0.431529,0.95116 -1.444527,1.67351 -3.017832,2.15196 -0.948081,0.28831 -5.702531,0.35773 -7.484097,0.10927 z"
         style="opacity:1;fill:#008080;fill-opacity:1;stroke:#011400;stroke-width:0.57962006;stroke-miterlimit:4;stroke-dasharray:none;stroke-opacity:1" />
      <path
         inkscape:connector-curvature="0"
         id="path835"
         d="m 74.606354,272.93428 c -0.819568,-0.4004 -1.72839,-1.86969 -2.14775,-3.47226 -0.481991,-1.8419 -1.028345,-2.82793 -3.047175,-5.49938 l -1.369036,-1.8116 0.652823,-0.0112 c 1.81788,-0.0313 2.546201,0.17986 3.529981,1.02336 0.778489,0.66748 1.296688,1.50342 1.863624,3.00633 0.5357,1.4201 0.8499,2.87164 1.023818,4.72983 0.159608,1.70528 0.0143,2.28928 -0.506285,2.03495 z"
         style="opacity:1;fill:#008080;fill-opacity:1;stroke:#011400;stroke-width:0.57962006;stroke-miterlimit:4;stroke-dasharray:none;stroke-opacity:1" />
      <path
         inkscape:connector-curvature="0"
         d="m 42.463368,263.83019 c 0.105588,0.15104 0.185944,0.326 0.283047,0.48556 0.08422,0.15006 0.199691,0.24611 0.328376,0.32056 0.09234,0.0286 0.167508,0.1051 0.253194,0.15223 0.08964,0.0319 0.166688,0.0998 0.237397,0.17589 0.103145,0.15577 0.175758,0.34134 0.262929,0.51234 0.100856,0.17372 0.197591,0.35104 0.29874,0.52458 0.1109,0.17372 0.197679,0.37037 0.285196,0.56438 0.0744,0.18358 0.140683,0.3669 0.187613,0.56515 0.06421,0.21424 0.09219,0.44005 0.129555,0.66307 0.03021,0.16405 0.06984,0.3245 0.09382,0.49051 0.02444,0.14966 0.0588,0.29621 0.09483,0.44181 0.03041,0.1542 0.06308,0.30611 0.112381,0.45212 0.09275,0.35621 0.211657,0.0917 -0.649988,0.45591 -0.02536,0.01 -0.0032,-0.0688 -0.0061,-0.10313 -0.0052,-0.0589 -0.02275,-0.19205 -0.02989,-0.24807 -0.028,-0.27639 -0.0681,-0.55083 -0.122456,-0.82056 -0.03397,-0.2174 -0.09419,-0.42434 -0.151994,-0.63243 -0.05358,-0.17076 -0.11838,-0.33497 -0.173291,-0.50504 -0.03894,-0.14888 -0.07385,-0.29882 -0.116381,-0.44607 -0.04941,-0.12955 -0.0831,-0.26508 -0.102214,-0.40709 -0.01627,-0.14572 -0.06682,-0.2772 -0.108886,-0.41239 -0.04844,-0.14177 -0.128684,-0.25494 -0.216988,-0.35684 -0.07637,-0.0978 -0.177775,-0.14749 -0.271554,-0.21028 -0.125112,-0.112 -0.178437,-0.31326 -0.23736,-0.48668 -0.05671,-0.1333 -0.06216,-0.28896 -0.107206,-0.42667 -0.03029,-0.10885 -0.105756,-0.15459 -0.177618,-0.21233 -0.03183,-0.0272 -0.07869,-0.0363 -0.104657,-0.0753 -0.17326,-0.26095 0.428799,-0.41233 0.664938,-0.57087 0.129356,0.0197 0.247341,0.084 0.35246,0.182 0.09359,0.12324 0.191657,0.24544 0.270654,0.38524 0.09067,0.13901 0.151185,0.29497 0.206406,0.46015 0.06169,0.17174 0.09416,0.35631 0.156155,0.5276 0.07701,0.16406 0.167154,0.31411 0.22707,0.49081 0.0067,0.0256 0.01343,0.0513 0.02007,0.0769 0,0 -0.660092,0.468 -0.660092,0.468 v 0 c -0.0053,-0.0233 -0.01069,-0.0465 -0.01595,-0.0698 -0.05567,-0.17845 -0.147872,-0.32489 -0.224017,-0.48846 -0.06298,-0.17194 -0.09728,-0.35558 -0.156315,-0.52951 -0.0564,-0.15677 -0.110489,-0.31027 -0.202203,-0.44022 -0.073,-0.13093 -0.162731,-0.24866 -0.254045,-0.3581 -0.102794,-0.0812 -0.214182,-0.13389 -0.336297,-0.13192 0.211286,-0.15597 0.431279,-0.29372 0.633862,-0.46789 0.01716,-0.0138 -0.05972,-0.0708 -0.04091,-0.0599 0.03352,0.0197 0.06216,0.0586 0.09762,0.0737 0.08374,0.0702 0.16712,0.1329 0.201245,0.26257 0.04586,0.13882 0.05144,0.2923 0.102749,0.42935 0.05065,0.15478 0.09466,0.33702 0.21337,0.42652 0.100612,0.0643 0.20229,0.12857 0.282911,0.23227 0.09418,0.11357 0.176571,0.24328 0.230595,0.3956 0.04703,0.1406 0.10136,0.27762 0.120884,0.4303 0.01496,0.13704 0.04518,0.26726 0.09419,0.39088 0.0416,0.1467 0.0786,0.29469 0.112885,0.44447 0.05428,0.17194 0.120151,0.33734 0.173073,0.51011 0.05944,0.21087 0.118228,0.42221 0.151963,0.64284 0.05392,0.27256 0.09304,0.54959 0.124823,0.82783 0.0037,0.0272 0.05033,0.35056 0.04688,0.35397 -0.591597,0.58646 -0.605389,0.86131 -0.676042,0.46953 -0.04859,-0.14947 -0.08353,-0.30352 -0.11409,-0.46076 -0.03857,-0.14927 -0.07236,-0.3008 -0.100551,-0.4538 -0.02039,-0.16642 -0.05964,-0.32592 -0.08935,-0.4896 -0.03506,-0.22085 -0.05709,-0.44578 -0.124258,-0.65627 -0.04715,-0.19028 -0.110213,-0.36788 -0.180509,-0.54584 -0.08484,-0.19127 -0.170121,-0.38445 -0.278334,-0.55574 -0.10278,-0.17471 -0.203631,-0.35131 -0.304333,-0.52804 -0.08156,-0.16228 -0.149124,-0.34146 -0.25247,-0.48233 -0.07217,-0.0657 -0.149231,-0.11673 -0.232344,-0.15578 -0.08211,-0.0554 -0.162258,-0.11535 -0.250119,-0.15557 -0.133737,-0.0897 -0.252006,-0.20174 -0.342021,-0.36097 -0.09467,-0.15321 -0.168924,-0.3277 -0.282102,-0.46056 0,0 0.641127,-0.52019 0.641127,-0.52019 z"
         id="path919"
         style="opacity:1;fill:#008080;fill-opacity:1;stroke:#011400;stroke-width:0;stroke-miterlimit:4;stroke-dasharray:none;stroke-opacity:1" />
      <path
         inkscape:connector-curvature="0"
         d="m 68.058616,263.9186 c 0.05276,0.002 0.102704,-0.0258 0.152742,-0.044 0.04953,-0.0197 0.09918,-0.0349 0.150742,-0.0426 0.02928,-0.008 0.0606,0.001 0.08939,-0.01 0.0113,-0.004 0.02149,-0.0118 0.03222,-0.0177 0.0053,-0.002 0.01084,-0.004 0.01583,-0.008 0.03001,-0.0197 0.03453,-0.0272 0.07007,-0.0349 0.03426,-0.006 0.06886,-0.006 0.103329,-0.006 0.03607,2e-5 0.07216,2.2e-4 0.108229,3.2e-4 0.04309,0.004 0.08524,-0.006 0.127875,-0.0118 0.04732,-0.006 0.09316,-0.0231 0.140622,-0.0292 0.04291,-0.0138 0.08655,-0.0219 0.130683,-0.0258 0.04086,-0.004 0.08179,-0.004 0.122716,-0.004 0.04166,-8e-5 0.08332,4.7e-4 0.124975,5.3e-4 0.0524,2.4e-4 0.104809,3.7e-4 0.157216,2.8e-4 0.05373,-5.2e-4 0.106992,0.0118 0.159254,0.0264 0.04811,0.0138 0.09531,0.0355 0.141919,0.057 0.04349,0.0138 0.08432,0.0369 0.123829,0.0641 0.03966,0.0217 0.07715,0.0495 0.112519,0.0812 0.03784,0.0375 0.07747,0.071 0.121494,0.0948 0.04856,0.0351 0.102093,0.0546 0.152831,0.083 0.06065,0.0327 0.125173,0.0505 0.187901,0.0747 0.04486,0.0158 0.08904,0.0394 0.129616,0.069 0.03615,0.0213 0.06439,0.0572 0.09104,0.0945 0.03458,0.0357 0.06069,0.0852 0.0973,0.11732 0.08735,-0.0475 0.0037,-0.002 -0.220806,0.154 -0.0012,0.001 0.0043,-10e-5 0.0044,-0.002 3.75e-4,-0.006 -0.0017,-0.0118 -0.0032,-0.0158 -0.0087,-0.0274 -0.01784,-0.0434 -0.03029,-0.0692 -0.05128,-0.0905 -0.10687,-0.17884 -0.172334,-0.25291 -0.0374,-0.0455 -0.08069,-0.0812 -0.121464,-0.12126 -0.01615,-0.0178 -0.03166,-0.0359 -0.04833,-0.0527 0,0 0.225518,-0.18299 0.225518,-0.18299 v 0 c 0.01603,0.0177 0.03154,0.0349 0.04783,0.0515 0.04154,0.0396 0.08252,0.0799 0.119586,0.12659 0.06524,0.0789 0.121586,0.16898 0.176414,0.25989 0.01656,0.0313 0.03651,0.0643 0.04605,0.10095 0.03396,0.13015 -0.165666,0.26457 -0.249429,0.18812 -0.03413,-0.0387 -0.06376,-0.0838 -0.098,-0.12245 -0.02633,-0.0335 -0.05363,-0.0647 -0.08762,-0.0848 -0.03998,-0.0266 -0.08113,-0.0501 -0.124838,-0.0645 -0.06338,-0.0241 -0.127478,-0.0457 -0.188695,-0.0783 -0.05216,-0.026 -0.105161,-0.0491 -0.154862,-0.0826 -0.04422,-0.0274 -0.08446,-0.0625 -0.12412,-0.0998 -0.03542,-0.0298 -0.07274,-0.055 -0.111084,-0.0777 -0.03902,-0.0248 -0.07923,-0.0448 -0.121021,-0.0605 -0.0463,-0.0197 -0.09235,-0.0414 -0.140301,-0.0536 -0.05109,-0.0138 -0.103252,-0.0223 -0.155578,-0.0207 -0.05257,-1.2e-4 -0.10513,2e-5 -0.157706,1.2e-4 -0.04189,0 -0.08377,2.9e-4 -0.125677,2.9e-4 -0.0403,3e-4 -0.08067,5.3e-4 -0.120884,0.006 -0.0438,0.006 -0.08667,0.0177 -0.130027,0.0268 -0.04679,0.01 -0.09293,0.0235 -0.140163,0.0286 -0.04357,0.008 -0.08709,0.0118 -0.131051,0.01 -0.03603,-1.2e-4 -0.07203,-4e-4 -0.108061,9e-5 -0.03352,10e-4 -0.06746,0.002 -0.100138,0.0118 -0.029,0.0118 -0.05447,0.0333 -0.0835,0.0453 -0.04031,0.0177 -0.0824,0.0138 -0.124105,0.0213 -0.05031,0.01 -0.09884,0.0284 -0.147826,0.046 -0.05231,0.0197 -0.104489,0.0422 -0.159746,0.0388 0,0 0.216698,-0.20337 0.216698,-0.20337 z"
         id="path931"
         style="opacity:1;fill:#008080;fill-opacity:1;stroke:#011400;stroke-width:0;stroke-miterlimit:4;stroke-dasharray:none;stroke-opacity:1" />
      <path
         inkscape:connector-curvature="0"
         d="m 69.671212,263.63271 c -0.07153,-0.002 -0.14311,-0.002 -0.214661,-0.002 -0.07982,3.7e-4 -0.159637,-8e-5 -0.239454,4.1e-4 -0.06753,5.1e-4 -0.135049,1.2e-4 -0.202585,2.8e-4 -0.07425,2.1e-4 -0.148223,0.004 -0.221746,-0.0118 -0.07039,-0.008 -0.13627,-0.0378 -0.200805,-0.0737 -0.04723,-0.0329 -0.09574,-0.0605 -0.149002,-0.0708 -0.05995,-0.008 -0.120334,-0.008 -0.180541,-0.008 -0.06411,-8e-5 -0.12786,-0.0118 -0.191802,-0.0177 -0.129676,-0.0118 -0.108702,0.0298 0.176232,-0.20153 0.0032,-0.002 0.0078,0.002 0.0116,0.004 0.0049,0.002 0.0099,0.002 0.01481,0.004 0.04638,0.01 0.09342,0.01 0.14021,0.01 0.05616,5.1e-4 0.11232,5.1e-4 0.168484,5.1e-4 0.06915,-8e-5 0.138286,10e-4 0.207429,5.4e-4 0.06956,-0.006 0.128654,10e-4 0.196543,0.0197 0.05286,0.0199 0.10652,0.0375 0.160824,0.0493 0.0017,-10e-4 0.0058,-0.006 0.0044,-0.004 -0.07664,0.0643 -0.149521,0.13664 -0.229924,0.19284 -0.0073,0.006 -0.01359,-0.0118 -0.02069,-0.0177 -0.0099,-0.008 -0.01987,-0.0158 -0.03018,-0.0221 -0.03703,-0.0241 -0.04992,-0.0288 -0.08959,-0.0479 -0.08735,-0.0436 -0.177004,-0.0775 -0.26922,-0.0984 -0.120227,-0.0235 -0.212053,0.0998 0.161644,-0.1893 0.0047,-0.004 0.05011,0.006 0.05163,0.006 0.09934,0.0308 0.201144,0.043 0.301256,0.0682 0.09246,0.025 0.181103,0.0682 0.269219,0.11121 0.07323,0.0361 0.152794,0.0574 0.220283,0.11042 0.0046,0.01 0.02221,0.0383 0.0064,0.0513 -0.08109,0.0674 -0.166839,0.12521 -0.253032,0.18101 -0.0053,0.004 -0.08013,0.01 -0.08029,0.01 -0.01749,0.002 -0.03477,0.006 -0.05219,0.01 -0.11177,0.0235 -0.224545,0.0353 -0.33754,0.0424 -0.08483,0.004 -0.16975,0.006 -0.254639,0.006 -0.03199,0.006 -0.109114,-0.0158 -0.132455,0.0138 0.07631,-0.0641 0.150361,-0.1327 0.228936,-0.19205 0.0058,-0.004 0.01313,0.004 0.01978,0.004 0.0098,0.002 0.01963,0.004 0.02949,0.006 0.03497,0.006 0.07011,0.008 0.105343,0.0118 0.08039,0.004 0.16086,0.004 0.241299,0.004 0.07208,3.3e-4 0.144163,-5.1e-4 0.216237,-0.002 0.05193,-5.1e-4 0.103863,4e-5 0.155792,-1.4e-4 0.04306,-2.3e-4 0.08614,-4.5e-4 0.129203,-5.3e-4 0.117449,0.001 0.122929,-0.0552 -0.194512,0.20284 -0.0043,0.004 -0.04361,-0.004 -0.0443,-0.004 -0.05972,-0.0118 -0.119998,-0.0158 -0.180249,-0.0177 -0.09376,-0.004 -0.187542,-0.004 -0.281321,-0.004 -0.08248,-0.004 -0.165569,0.008 -0.247837,-0.002 -0.05372,-0.004 -0.104489,-0.0158 -0.154366,-0.0416 -0.01175,0.01 -0.05045,-0.0461 -0.03639,-0.0584 0.07808,-0.0682 0.161568,-0.12581 0.245095,-0.1822 0.0081,-0.006 0.01833,-0.001 0.02751,-0.002 0.01038,-5.4e-4 0.02081,-0.002 0.03119,-0.002 0.06141,-0.004 0.122899,-0.004 0.184366,-0.004 0.06755,0.008 0.135004,0.0209 0.201334,0.0394 0.05077,0.0138 0.09988,0.0363 0.149597,0.0554 0.04282,0.0118 0.0857,0.0237 0.128852,0.0335 0.03877,0.008 0.07814,0.01 0.117373,0.0118 0.03619,4.9e-4 0.07237,2.6e-4 0.108565,1.6e-4 0.194943,0.004 -0.02977,0.11969 -0.158151,0.22313 -0.06428,-0.001 -0.128577,10e-4 -0.192872,10e-4 -0.06724,-1.1e-4 -0.134485,2.4e-4 -0.201721,5.4e-4 -0.04624,3.1e-4 -0.09249,4.1e-4 -0.138744,1.9e-4 -0.04528,6e-5 -0.09057,2.2e-4 -0.135843,-9e-5 -0.05286,0.002 -0.103695,-0.0197 -0.151689,-0.046 -0.04833,-0.0213 -0.09521,-0.0471 -0.145445,-0.0599 -0.05373,-0.008 -0.107084,-0.0197 -0.160953,-0.0268 -0.04372,-0.006 -0.08765,-0.006 -0.131554,-0.008 -0.03163,-0.006 -0.05538,0.0138 -0.08231,0.0319 -0.04979,0.0317 -0.0012,-0.004 -0.05468,0.0379 0.379067,-0.29112 0.150223,-0.1191 0.07394,-0.0266 -0.0024,0.004 -0.0043,0.008 -0.0075,0.0118 -8.08e-4,5.1e-4 -0.0024,-0.004 -0.0017,-0.004 0.004,-0.002 0.0085,-0.004 0.01298,-0.004 0.03207,-0.004 0.06343,-0.006 0.0955,-0.01 0.07344,-0.0138 0.144606,-0.0416 0.209859,-0.0874 0.08664,-0.0603 0.100505,-0.0702 -0.182945,0.13586 -0.006,0.004 0.0113,-0.01 0.01693,-0.0138 0.01313,-0.0118 0.0252,-0.0246 0.03748,-0.0379 0.0085,-0.01 0.01627,-0.0219 0.01968,-0.0367 4.04e-4,-0.002 -4.05e-4,-0.008 8.07e-4,-0.008 0.0032,0.004 0.0017,0.0178 0.0056,0.0158 0.07974,-0.0493 0.155379,-0.10885 0.233066,-0.16347 -0.01023,0.0363 -0.0061,0.0747 -4.03e-4,0.11181 0.007,0.0436 0.03865,0.0676 0.04813,0.10884 -0.216747,0.18042 -0.162052,0.22933 -0.270097,0.16209 -0.02493,-0.0158 -0.04958,-0.0302 -0.07393,-0.0473 -0.03998,-0.0227 -0.0624,-0.07 -0.09168,-0.10845 -0.0085,-0.0118 -0.03922,-0.045 -0.04781,-0.0546 -0.04369,-0.0451 -0.09521,-0.0743 -0.14543,-0.1049 -0.0064,-0.004 -0.01267,-0.01 -0.01919,-0.0138 -0.0099,-0.006 -0.02189,-0.0118 -0.03058,-0.0217 -0.06991,-0.0793 0.151597,-0.14079 0.234556,-0.19502 0.0073,-0.004 0.01551,0.006 0.02326,0.01 0.05436,0.0258 0.107558,0.0554 0.162238,0.0801 0.04699,0.028 0.09718,0.0455 0.144301,0.0726 0.04169,0.0256 0.08593,0.0402 0.131584,0.0469 0.0087,10e-4 0.02177,0.004 0.03033,-0.002 0.002,-0.002 0.0049,-0.01 0.0029,-0.008 -0.07576,0.0631 -0.148254,0.1329 -0.22526,0.19344 -0.0037,0.002 -0.0067,-0.006 -0.01053,-0.008 -0.0055,-0.004 -0.0113,-0.006 -0.017,-0.01 -0.0497,-0.0288 -0.100505,-0.0544 -0.151078,-0.0806 -0.05389,-0.0292 -0.109801,-0.0495 -0.166462,-0.0676 -0.04019,-0.0197 -0.08139,-0.0321 -0.121341,-0.0515 -0.03676,-0.025 -0.07472,-0.0479 -0.110275,-0.0757 -0.03458,-0.0359 -0.07472,-0.0649 -0.106077,-0.10569 -0.04642,-0.13645 0.157593,-0.16524 0.23291,-0.21679 0.0024,-0.002 0.04877,0.0118 0.0513,0.0118 0.0436,0.0197 0.08645,0.0412 0.130867,0.057 0.04789,0.0292 0.09751,0.0544 0.147628,0.0765 0.05934,0.0329 0.120335,0.057 0.18404,0.0702 0.03122,-10e-4 0.06978,0.0205 0.100474,0.006 0.0053,-0.002 0.0189,-0.0177 0.01374,-0.0138 -0.07236,0.0513 -0.143873,0.10431 -0.215802,0.15636 0.0024,-0.004 0.0061,-0.008 0.007,-0.0138 0.0079,-0.0489 -0.05845,-0.10865 -0.08322,-0.13073 -0.07678,-0.0493 -0.156623,-0.0891 -0.235466,-0.13231 -0.07582,-0.0465 -0.156049,-0.0789 -0.233996,-0.11851 -0.05613,-0.0319 -0.115693,-0.0459 -0.176361,-0.0523 -0.04755,-0.004 -0.09521,-0.002 -0.142804,-0.002 -0.04676,0.002 -0.09295,0.0138 -0.13966,0.0177 -0.04485,0.004 -0.08985,0.006 -0.134806,0.006 -0.04673,0.0118 -0.09397,0.0158 -0.141338,0.0197 -0.05085,0.004 -0.100933,0.01 -0.146957,-0.0223 -0.03364,-0.0339 -0.04074,-0.0795 -0.03485,-0.13112 0.0024,-0.008 0.0043,-0.0177 0.0076,-0.0256 0.0052,-0.0118 0.01975,-0.0365 0.0292,-0.044 0.162484,-0.12679 0.175865,-0.15538 0.292754,-0.20377 0.05772,-0.0138 0.1158,-0.026 0.173792,-0.0387 0.03841,-0.0118 0.0724,-0.0373 0.10797,-0.0582 -0.07133,0.0527 -0.14253,0.1055 -0.214004,0.15775 -0.005,0.004 0.0099,-0.008 0.01481,-0.0118 0.0087,-0.008 0.01951,-0.0197 0.02871,-0.0258 0.08217,-0.0596 0.163865,-0.12028 0.247171,-0.17707 0.006,-0.004 0.01328,-0.004 0.01991,-0.006 0.04978,-0.006 0.100566,0.006 0.150543,0.01 0.05176,0.002 0.103009,0.004 0.154293,0.0138 0.04929,0.01 0.09909,0.0118 0.148819,0.0138 0.05212,10e-4 0.104229,0.002 0.156356,0.002 0.05561,0.008 0.111237,0.0158 0.167194,0.0199 0.06385,0.004 0.127753,0.004 0.191647,0.004 0.0739,2.7e-4 0.147369,-0.004 0.220479,0.0118 0.06617,0.01 0.129799,0.0302 0.192541,0.0592 0.06576,0.0361 0.130791,0.0747 0.195279,0.11437 0.07781,0.0497 0.155469,0.0996 0.234686,0.14552 0.06965,0.0459 0.143705,0.0797 0.214069,0.12324 0.01656,0.01 0.03462,0.0229 0.05373,0.0223 0.0064,-2.2e-4 0.02371,-0.0118 0.01821,-0.008 -0.07265,0.0511 -0.145293,0.10214 -0.21795,0.15321 0.0029,-0.004 0.0073,-0.006 0.0089,-0.01 0.002,-0.006 4.04e-4,-0.0118 8.07e-4,-0.0177 -0.01328,-0.0588 -0.05135,-0.0968 -0.08495,-0.13645 -0.04486,-0.0408 -0.09608,-0.0666 -0.14633,-0.0939 -0.05271,-0.0239 -0.102199,-0.0572 -0.155876,-0.0775 -0.04205,-0.0158 -0.08599,-0.0229 -0.128302,-0.0375 -0.03078,-0.0237 -0.0657,-0.0319 -0.09893,-0.0469 -0.03578,-0.0158 -0.0728,-0.0158 -0.107786,-0.0347 -0.03522,-0.0178 -0.07184,-0.0298 -0.106504,-0.0497 -0.03938,-0.0178 -0.0781,-0.0363 -0.11722,-0.0544 -0.04149,-0.0177 -0.08547,-0.0213 -0.128975,-0.0235 -0.05152,-0.002 -0.103054,-10e-4 -0.154582,-10e-4 -0.0499,-0.004 -0.09875,0.008 -0.14798,0.0158 -0.04318,0.008 -0.08548,0.0205 -0.129035,0.0256 -0.04526,0.004 -0.09014,3.4e-4 -0.133859,0.0177 -0.04332,0.0178 -0.08417,0.0383 -0.129203,0.0461 -0.06353,0.0197 -0.126181,0.0444 -0.190028,0.0623 -0.04752,0.0233 -0.09707,0.0377 -0.145232,0.058 -0.0514,0.0138 -0.101298,0.0317 -0.151001,0.0528 -0.04199,0.0177 -0.08521,0.0329 -0.125601,0.057 -0.09741,0.0525 -0.329034,0.23108 0.06543,-0.0609 -0.143796,0.12206 -0.516284,0.3726 -0.07845,0.0609 0.0095,-0.006 -0.01789,0.0158 -0.0267,0.0239 -0.02423,0.0221 -0.02739,0.0256 -0.0507,0.0487 -0.04357,0.0416 -0.08336,0.0889 -0.124929,0.13369 -0.01797,0.0312 -0.03215,0.0233 -0.0185,0.0138 0.0043,-0.004 0.0098,-5.3e-4 0.0145,-0.002 0.0061,-0.002 0.01206,-0.004 0.01818,-0.006 0.03735,-0.0138 0.07187,-0.0345 0.110274,-0.0442 0.0403,-0.0138 0.08095,-0.0237 0.11951,-0.0446 0.02403,-0.0177 0.053,-0.0158 0.07765,-0.03 0.0142,-0.008 0.02694,-0.0199 0.0406,-0.0294 0.04351,-0.0306 0.08932,-0.0489 0.137966,-0.0588 0.04224,-2.2e-4 0.07646,-0.0292 0.112915,-0.0521 -0.372279,0.33565 -0.238959,0.17077 -0.152024,0.10353 0.191405,-0.15558 0.197044,-0.1893 0.359992,-0.1964 0.05485,-0.002 0.109725,-0.004 0.164599,-0.002 0.059,0.006 0.113282,0.0292 0.162609,0.0712 0.03283,0.0357 0.06746,0.0712 0.07571,0.12817 -0.03554,0.27837 -0.25194,0.21055 -0.376758,0.17707 -0.07463,-0.0272 -0.147994,-0.0584 -0.220853,-0.0925 -0.02044,-0.004 -0.05036,-0.0325 -0.07211,-0.0177 -0.0056,0.004 -0.01752,0.0223 -0.01206,0.0197 0.216266,-0.14375 0.247037,-0.25062 0.20353,-0.12285 -0.01023,0.0619 -0.01829,0.12817 -0.01297,0.19186 -0.328105,0.19975 -0.212408,0.20619 -0.242917,-0.0207 -0.0084,-0.0627 -0.02036,-0.10096 -0.05128,-0.14868 -0.0281,-0.0367 -0.06753,-0.0493 -0.09919,-0.0797 -0.03546,-0.0471 -0.04122,-0.0876 -0.0096,-0.14 0.08501,-0.0943 0.188596,-0.15617 0.290165,-0.21533 0.02157,-0.0118 0.0401,-0.0254 0.06292,-0.0343 0.03861,-0.0158 0.07546,-0.0365 0.113954,-0.0517 0.03784,-0.0118 0.07712,-0.0118 0.11577,-0.0118 0.03757,-5.3e-4 0.07512,-3.6e-4 0.112671,-2.4e-4 0.03841,4e-5 0.07683,1.8e-4 0.115236,5.2e-4 0.04792,-0.002 0.09629,0.004 0.143842,-0.004 0.04364,-0.01 0.08785,-0.0138 0.132073,-0.0177 0.03796,-0.002 0.07594,-0.002 0.113923,-0.002 0.04035,-1.9e-4 0.08066,4.6e-4 0.12099,5.4e-4 0.06391,5.1e-4 0.127845,0.001 0.191763,0.001 0.07408,5.1e-4 0.148162,0 0.222234,-2.7e-4 0.06804,10e-6 0.136072,3.5e-4 0.204104,-4e-5 0.06121,-0.002 0.122502,0.004 0.182715,0.0197 0.0544,0.0217 0.112503,0.0385 0.161178,0.0781 0.08068,0.13901 -0.163068,0.23936 -0.268495,0.21678 -0.04891,-0.0138 -0.09979,-0.0223 -0.147154,-0.0434 -0.05298,-0.0233 -0.105589,-0.0463 -0.160924,-0.058 -0.05975,-0.01 -0.120182,-0.0118 -0.180385,-0.0118 -0.05804,-2.4e-4 -0.11606,4e-5 -0.174092,5.1e-4 -0.0524,0.006 -0.104336,0.0158 -0.154894,0.0361 -0.0521,0.0197 -0.105924,0.0276 -0.159895,0.0317 -0.04976,0.002 -0.09956,0.002 -0.149353,0.004 -0.04064,1.7e-4 -0.08129,-2.6e-4 -0.121922,-3.2e-4 -0.03914,2e-5 -0.07825,10e-5 -0.117373,1.4e-4 -0.04057,-1.6e-4 -0.08115,-2e-4 -0.121723,-1.2e-4 -0.03772,8e-5 -0.07546,1.4e-4 -0.113175,1.6e-4 -0.03676,-4e-5 -0.07352,1.6e-4 -0.110274,-1.6e-4 -0.04667,0.002 -0.09383,-0.006 -0.140088,0.004 -0.04517,0.01 -0.09092,0.0138 -0.136652,0.0177 -0.03829,-0.004 -0.07146,0.006 -0.108275,0.0158 -0.04644,0.002 -0.09103,0.0197 -0.136057,0.0321 -0.06353,0.0379 -0.128226,0.072 -0.192529,0.10746 -0.08002,0.0412 -0.156329,0.0925 -0.231375,0.1469 -0.07782,0.0546 -0.254416,0.18082 0.09454,-0.072 0.01496,-0.01 -0.02952,0.0227 -0.04407,0.0345 -0.02049,0.0158 -0.07587,0.0643 -0.09506,0.0807 -0.10052,0.083 -0.191927,0.18219 -0.278237,0.2882 -0.07007,0.0879 -0.138683,0.17648 -0.198317,0.27667 -0.047,0.0812 -0.0906,0.16583 -0.128043,0.25511 -0.02932,0.0905 -0.05303,0.18398 -0.07924,0.27624 -0.02645,0.0848 -0.05802,0.16603 -0.0984,0.24117 -0.03389,0.0603 -0.06312,0.12462 -0.09243,0.18871 -0.03421,0.0662 -0.05685,0.14 -0.08077,0.21296 -0.02044,0.0605 -0.03885,0.12225 -0.05799,0.18338 -8.07e-4,0.002 -0.01206,0.0481 -0.0037,0.0485 0.0037,2e-4 0.0063,-0.004 0.0096,-0.006 0.0056,-0.002 0.0113,-0.004 0.01701,-0.006 0.0075,-0.004 0.01511,-0.006 0.02258,-0.01 0.07063,-0.0371 0.233434,-0.12422 -0.169193,0.12738 -0.01267,0.008 0.02149,-0.0239 0.0305,-0.038 0.03219,-0.0503 0.05363,-0.11516 0.07654,-0.17254 0.04344,-0.1256 0.08701,-0.25086 0.136866,-0.3724 0.05448,-0.12679 0.119586,-0.24518 0.181979,-0.3656 0.04172,-0.0763 0.08706,-0.14907 0.133004,-0.22108 0.03433,-0.0515 0.06823,-0.10352 0.108184,-0.14789 0.144071,-0.13487 0.30791,-0.22697 0.466068,-0.32919 0.08165,-0.0455 0.161665,-0.096 0.24409,-0.13922 0.10516,-0.0526 0.208047,-0.11219 0.314725,-0.15991 0.08599,-0.045 0.175561,-0.0753 0.263903,-0.11062 0.06036,-0.0288 0.123097,-0.0452 0.18482,-0.0674 0.08576,-0.0329 0.173056,-0.0603 0.26099,-0.0818 0.06714,-0.0178 0.135493,-0.0197 0.203628,-0.0201 0.0487,-0.002 0.09722,-0.002 0.143934,0.0197 0.0061,0.002 0.06192,0.0349 0.06846,0.0386 0.07962,0.0446 0.130409,0.13291 0.186914,0.21344 0.06614,0.0982 0.147506,0.17431 0.225534,0.25527 0.07236,0.11259 0.0376,0.0434 -0.21601,0.22528 -0.0098,0.008 -0.02068,-0.01 -0.03106,-0.0158 -0.04886,-0.0237 -0.09545,-0.0501 -0.142438,-0.0797 -0.08976,-0.0546 -0.176547,-0.11712 -0.259829,-0.18673 -0.05964,-0.0451 -0.117342,-0.0958 -0.180489,-0.13231 -0.05695,-0.0323 -0.113755,-0.0639 -0.174749,-0.0808 -0.08784,0.0444 -0.09252,0.0477 0.197977,-0.14217 0.0058,-0.004 -0.0096,0.0118 -0.01313,0.0197 -0.01481,0.03 -0.01404,0.0625 -0.01374,0.0966 0.01053,0.081 0.04173,0.15064 0.08838,0.20538 0.0063,0.006 0.02435,0.0227 0.03465,0.0205 0.0037,-5.3e-4 0.01069,-0.0118 0.0075,-0.01 -0.07565,0.0534 -0.149445,0.11101 -0.225333,0.16386 -0.0024,0.002 0.0032,-0.006 0.0029,-0.01 -2.74e-4,-0.008 -0.0029,-0.0158 -0.0041,-0.0233 -0.01481,-0.071 -0.03303,-0.13941 -0.05503,-0.20712 -0.01894,-0.0643 -0.05587,-0.11141 -0.09759,-0.15222 -0.0225,-0.0225 -0.05065,-0.027 -0.07642,-0.0394 -0.0267,-0.0158 -0.01328,-0.008 -0.04041,-0.0211 -0.04071,-0.0207 -0.0782,-0.0392 -0.116396,-0.067 -0.03025,-0.0262 -0.04653,-0.0631 -0.02957,-0.10766 0.151932,-0.14277 0.18746,-0.18871 0.32472,-0.19305 0.04311,-4.3e-4 0.08623,1.2e-4 0.129341,5.2e-4 0.05297,5.3e-4 0.105939,3.5e-4 0.158909,2.7e-4 0.05314,-0.008 0.103237,0.0138 0.15441,0.0278 0.06543,0.0197 0.130775,0.0373 0.195905,0.0582 0.05202,0.008 0.09808,0.0343 0.146071,0.0582 0.04309,0.0209 0.08316,0.0475 0.124151,0.0747 0.05355,0.0386 0.110244,0.0694 0.163242,0.10923 0.03752,0.0254 0.07086,0.0596 0.107741,0.0864 0.02859,0.0221 0.06207,0.0302 0.09173,0.0487 0.05482,0.13487 0.02952,0.0459 -0.231738,0.18693 -0.0053,0.004 -0.0089,-0.01 -0.01359,-0.0138 -0.02241,-0.0223 -0.04401,-0.0453 -0.0659,-0.0686 -0.05015,-0.0643 -0.09583,-0.13388 -0.140148,-0.20481 -0.04048,-0.0649 -0.08162,-0.12876 -0.124044,-0.19147 -0.04082,-0.0477 -0.08924,-0.0818 -0.139583,-0.10943 -0.03001,-0.0249 -0.06298,-0.0359 -0.09751,-0.0438 -0.0024,-0.001 -0.0099,-5.1e-4 -0.0076,-0.002 0.303352,-0.24705 0.154173,-0.23688 0.269022,-0.14927 0.01951,0.0158 0.03974,0.028 0.05966,0.042 0.06857,0.045 0.13566,0.0947 0.207642,0.13014 0.05685,0.0237 0.109863,0.0594 0.165203,0.0877 0.06363,0.0457 0.12502,0.0962 0.189034,0.14118 0.06295,0.0438 0.118778,0.10175 0.17095,0.16445 0.0534,0.0623 0.100994,0.13271 0.156696,0.19167 0.0063,0.004 0.01221,0.01 0.01899,0.0138 0.0072,0.004 0.01781,0.008 0.02459,-4.3e-4 0.0029,-0.004 0.0081,-0.0158 0.0046,-0.0138 -0.22339,0.15814 -0.234933,0.27746 -0.220079,0.154 -0.01359,-0.0647 -0.04836,-0.12008 -0.07538,-0.17687 -0.02427,-0.0416 -0.04841,-0.0854 -0.07982,-0.11871 -0.004,-0.004 -0.0486,-0.0434 -0.05124,-0.0457 -0.04663,-0.0436 -0.102886,-0.0621 -0.153142,-0.096 -0.0032,-0.004 -0.0076,-0.008 -0.0095,-0.0138 -0.0387,-0.11358 0.156816,-0.14631 0.24459,-0.19679 0.0055,-0.004 0.08425,0.0337 0.09189,0.0375 0.05767,0.0424 0.121189,0.0663 0.182605,0.097 0.02835,0.0158 0.09246,0.0591 0.100688,0.10194 0.0017,0.008 3.88e-4,0.0177 4.05e-4,0.0274 -0.08397,0.0554 -0.165385,0.11792 -0.25193,0.16622 -0.0063,0.004 -0.0577,-0.027 -0.05907,-0.0278 -0.03154,-0.0177 -0.06291,-0.0327 -0.09561,-0.0461 -0.05898,-0.0296 -0.114854,-0.0657 -0.167597,-0.11042 -0.05118,-0.0432 -0.104611,-0.0818 -0.162351,-0.10806 -0.04587,-0.0219 -0.08846,-0.0534 -0.133263,-0.0785 -0.0078,-0.004 -0.01591,-0.006 -0.02351,-0.01 -0.016,-0.01 -0.03065,-0.0215 -0.04656,-0.0308 -0.02334,-0.0138 -0.04824,-0.0219 -0.07262,-0.0314 -0.02,-1.4e-4 -0.103222,-0.0426 -0.116456,-0.0365 -0.0046,0.002 -0.0061,0.01 -0.0092,0.0138 0.07274,-0.0526 0.143384,-0.11062 0.218192,-0.15814 0.0056,-0.004 -0.0063,0.0158 -0.0063,0.0231 1.08e-4,0.0138 0.0037,0.0254 0.0067,0.0375 0.01374,0.0521 0.03757,0.095 0.06199,0.13941 0.0463,0.0793 0.109328,0.13014 0.176447,0.17451 0.1325,0.0887 -0.07843,0.14769 -0.199905,0.22928 -0.0066,0.004 -0.01435,-0.006 -0.02172,-0.008 -0.0095,-0.002 -0.01902,-0.004 -0.02851,-0.006 -0.07037,-0.0158 -0.137431,-0.0471 -0.204278,-0.0787 -0.0557,-0.0272 -0.109343,-0.0611 -0.165565,-0.0866 -0.03683,-0.002 -0.07016,-0.0532 -0.106824,-0.0414 0.07596,-0.0548 0.150849,-0.1122 0.227873,-0.16445 8.08e-4,-5.3e-4 0.01757,0.0225 0.02658,0.0335 0.03337,0.0416 0.06891,0.0791 0.104948,0.11653 0.0646,0.0718 0.13766,0.12679 0.211264,0.18082 0.04743,0.0294 0.09947,0.042 0.149689,0.0611 0.0024,-0.002 0.01008,-0.008 0.0075,-0.006 -0.256985,0.18792 -0.170068,0.23929 -0.282159,0.0972 -0.04019,-0.0461 -0.07651,-0.10174 -0.124043,-0.13546 -0.04041,-0.0276 -0.08098,-0.056 -0.123021,-0.0797 -0.05288,-0.0203 -0.102184,-0.0519 -0.155728,-0.069 -0.05004,-0.0207 -0.100581,-0.039 -0.150131,-0.0615 -0.05537,-0.0199 -0.111023,-0.04 -0.167375,-0.055 -0.04955,-0.0207 -0.09918,-0.0408 -0.149063,-0.0603 -0.05372,-0.0197 -0.109985,-0.0209 -0.165397,-0.0231 -0.06065,-0.002 -0.121311,-0.001 -0.181959,-5.1e-4 -0.04653,5.1e-4 -0.09305,2.1e-4 -0.139598,3.5e-4 -0.03748,0.006 -0.07121,0.0266 -0.107771,0.0371 -0.0099,0.002 -0.03058,0.004 -0.03978,0.01 -0.0055,0.004 -0.01958,0.0197 -0.0142,0.0158 0.07295,-0.0544 0.145919,-0.10885 0.218878,-0.16327 -0.0012,0.002 -0.0032,0.004 -0.0032,0.006 4.03e-4,0.004 0.0037,0.008 0.0052,0.0118 0.03288,0.0404 0.07498,0.0635 0.116885,0.0836 0.07987,0.0363 0.16187,0.0635 0.243011,0.0947 0.105039,0.0459 0.2106,0.0887 0.319354,0.11713 0.101695,0.027 0.2019,0.0635 0.301905,0.0996 0.06532,0.0229 0.127753,0.0574 0.193309,0.0791 0.03905,0.0158 0.07584,0.0373 0.115556,0.0491 0.03575,0.0229 0.07478,0.0268 0.113877,0.0304 0.04941,0.004 0.09892,0.004 0.148392,0.004 0.03357,-0.006 0.06402,0.0138 0.04102,0.0637 -0.0067,0.0138 -0.02606,0.0312 -0.03578,0.0406 -0.104886,0.13961 -0.272103,0.18417 -0.399739,0.28233 -0.0072,0.006 -0.02832,0.0201 -0.02128,0.0158 0.0699,-0.0521 0.139782,-0.10411 0.209993,-0.15538 0.0053,-0.004 -0.01007,0.01 -0.01543,0.0138 -0.08089,0.0609 -0.161595,0.12225 -0.243193,0.1816 -0.02081,0.01 -0.0113,0.004 -0.02891,0.0177 -0.08912,0.0517 -0.02714,0.0158 0.204774,-0.15341 0.0041,-0.004 -0.0081,0.006 -0.01191,0.01 -0.007,0.006 -0.02299,0.0246 -0.03029,0.03 -0.08216,0.0615 -0.165073,0.12127 -0.247611,0.182 -0.04381,0.026 -0.0893,0.0465 -0.136378,0.06 -0.05138,0.004 -0.100871,0.0158 -0.150956,0.031 -0.05886,0.0197 -0.120105,0.0177 -0.179806,0.0286 -0.04848,0.01 -0.09728,0.0158 -0.1463,0.0199 -0.04664,5.1e-4 -0.07796,0.0178 -0.101696,-0.0455 -0.01099,-0.0591 0.02103,-0.0911 0.05471,-0.12166 0.0907,-0.0517 0.186265,-0.16899 0.293235,-0.20501 0.02275,-0.008 0.04415,-0.0138 0.06622,-0.0247 0.04493,-0.0158 0.08889,-0.0361 0.13337,-0.0544 0.0731,-0.0325 0.148819,-0.0536 0.223643,-0.0785 0.06126,-0.0282 0.12325,-0.0505 0.187704,-0.0615 0.04569,-0.002 0.09031,-0.0138 0.135553,-0.0217 0.0202,-0.002 0.02128,-4.4e-4 0.04015,-0.0118 0.0064,-0.004 0.02452,-0.0197 0.0183,-0.0138 -0.07201,0.0529 -0.143995,0.10589 -0.215991,0.15873 0.0063,-0.004 0.0076,-0.002 0.0041,-0.004 -0.03804,-0.0215 -0.0813,-0.0223 -0.122166,-0.0247 -0.07376,-0.002 -0.147567,-0.002 -0.221359,-0.004 -0.112579,-10e-4 -0.225163,-3e-4 -0.337743,8e-5 -0.07317,0.004 -0.147063,-0.006 -0.219027,0.0138 -0.0602,0.0235 -0.116396,0.0605 -0.177315,0.0808 -0.03983,0.008 -0.105772,0.0398 -0.13502,-0.0158 -0.005,-0.01 -0.0064,-0.0217 -0.0096,-0.0325 -0.0037,-0.0883 0.05239,-0.14493 0.102551,-0.19206 0.174859,-0.14158 0.26283,-0.21532 0.442252,-0.26125 0.08651,-0.0219 0.172557,-0.0448 0.260212,-0.0586 0.09452,-0.0138 0.189735,-0.0118 0.284632,-0.01 0.141659,5.3e-4 0.283323,0.001 0.424986,0.001 0.126883,-5.1e-4 0.253755,-5.1e-4 0.380632,-5.1e-4 0.124074,0.004 0.247137,-0.0197 0.37057,-0.0319 0.102597,-0.01 0.205469,-0.0138 0.308343,-0.0158 0.08083,-0.002 0.161677,-10e-4 0.242514,-10e-4 0.059,-3.2e-4 0.118014,2.1e-4 0.177007,-10e-4 0.0032,-2.5e-4 0.01237,-0.004 0.0096,-5.3e-4 -0.274283,0.23676 -0.147781,0.19423 -0.331014,0.16642 -0.09988,-0.0138 -0.200161,-0.01 -0.299999,0.002 -0.104581,0.0138 -0.209226,0.0268 -0.312988,0.0483 -0.07697,0.0158 -0.154504,0.0262 -0.232429,0.03 -0.07136,0.002 -0.142773,0.002 -0.214165,0.002 -0.08697,-5.1e-4 -0.173914,-10e-4 -0.260871,-10e-4 -0.09289,-1.6e-4 -0.185768,-8e-5 -0.27865,4.7e-4 -0.0784,2.2e-4 -0.156808,1.8e-4 -0.235215,2.8e-4 -0.05575,2.7e-4 -0.111481,0.001 -0.167213,0.001 -0.04656,-0.006 -0.06288,-0.058 -0.05585,-0.1118 0.0024,-0.008 0.0043,-0.0138 0.0073,-0.0209 0.0056,-0.0118 0.01543,-0.0241 0.02468,-0.0312 0.107267,-0.0812 0.179886,-0.15439 0.284425,-0.20128 0.05317,-0.0213 0.105527,-0.0446 0.160411,-0.0588 0.0436,-0.01 0.08796,-0.0118 0.132149,-0.0118 0.04184,-3.6e-4 0.08368,1.2e-4 0.125525,3.1e-4 0.07248,10e-4 0.144972,0.002 0.217452,0.002 0.09675,4.6e-4 0.193494,-1.5e-4 0.290241,-2.9e-4 0.10942,-0.006 0.214033,0.0408 0.313938,0.0935 0.192719,0.11812 0.389824,0.2226 0.590397,0.31627 0.188317,0.0862 0.383685,0.13802 0.578848,0.18969 0.0116,0.004 0.02371,0.006 0.0347,0.0118 0.005,0.002 0.01676,0.01 0.01236,0.0138 -0.07546,0.073 -0.154002,0.14118 -0.23576,0.20176 -0.01023,0.008 -0.02368,-5.3e-4 -0.03551,-5.3e-4 -0.01765,-1.2e-4 -0.03529,4e-5 -0.05299,6e-5 -0.02423,-2.2e-4 -0.0485,-4.4e-4 -0.07274,-5.2e-4 -0.215869,-0.002 -0.431743,-0.004 -0.647625,-0.004 -0.181046,-1.8e-4 -0.362088,0.002 -0.543131,0.004 -0.111496,-1e-4 -0.222752,2.2e-4 -0.334083,0.008 -0.125173,0.01 -0.250543,0.0118 -0.375866,0.0138 -0.09646,0.008 -0.193388,0.0217 -0.287369,0.0513 -0.07497,0.026 -0.150375,0.0483 -0.225325,0.0743 -0.07965,0.031 -0.160359,0.057 -0.240053,0.0879 -0.07349,0.0286 -0.14685,0.055 -0.218637,0.0907 -0.06193,0.0177 -0.117601,0.0562 -0.176373,0.0856 -0.03171,0.0207 -0.01568,0.0118 -0.04805,0.0282 0,0 0.208224,-0.21233 0.208224,-0.21233 v 0 c 0.03139,-0.0177 0.01551,-0.01 0.04766,-0.027 0.05796,-0.0311 0.115571,-0.0617 0.176033,-0.0842 0.07201,-0.0335 0.145796,-0.0584 0.218803,-0.0877 0.08008,-0.0294 0.160472,-0.0576 0.240465,-0.0874 0.07497,-0.026 0.150544,-0.0491 0.225878,-0.0731 0.09464,-0.0249 0.191092,-0.0392 0.287653,-0.0428 0.125295,-0.002 0.250584,-0.006 0.375675,-0.0158 0.111099,-0.008 0.222212,-0.008 0.333429,-0.006 0.178252,0.002 0.3565,0.004 0.534759,0.004 0.21816,4.2e-4 0.43634,0.001 0.654478,-0.004 0.02775,-0.001 0.09902,-0.004 0.130959,-0.008 0.01191,-0.002 0.0445,-0.0177 0.03529,-0.008 -0.221496,0.23758 -0.127005,0.22287 -0.235378,0.17312 -0.190428,-0.0631 -0.383118,-0.11614 -0.568289,-0.20351 -0.203571,-0.0927 -0.403624,-0.1958 -0.601364,-0.30765 -0.100765,-0.0469 -0.204068,-0.0871 -0.312527,-0.0798 -0.09652,-1.6e-4 -0.193039,-5.4e-4 -0.289559,-3.4e-4 -0.07397,5.1e-4 -0.147949,0.001 -0.221916,0.002 -0.04175,-1e-4 -0.08348,-3.8e-4 -0.125234,2.1e-4 -0.04302,0.002 -0.08616,0.004 -0.128302,0.0158 -0.05404,0.0158 -0.106184,0.04 -0.158526,0.0637 -0.01313,0.008 -0.05138,0.0329 -0.03902,0.0235 0.384287,-0.29346 0.250786,-0.19619 0.173874,-0.12915 -0.01926,0.04 -0.0041,0.0558 0.02916,0.0564 0.05483,3.6e-4 0.109664,10e-4 0.164512,10e-4 0.0782,1e-4 0.15642,6e-5 0.234629,2.7e-4 0.09251,5.4e-4 0.185021,5.4e-4 0.277527,5.4e-4 0.08767,-2.2e-4 0.175344,-2.6e-4 0.263015,-5.4e-4 0.07112,-2.5e-4 0.142286,3.6e-4 0.213363,-0.004 0.07681,-0.006 0.153314,-0.0158 0.229282,-0.0313 0.103665,-0.0178 0.207755,-0.0327 0.311999,-0.0446 0.102092,-0.01 0.204609,-0.0138 0.306627,5.3e-4 0.03187,0.006 0.06507,0.008 0.09571,0.0223 0.112213,0.0491 -0.108885,0.22205 -0.204867,0.21097 -0.05795,-0.002 -0.115923,-0.001 -0.173882,-0.002 -0.08028,-2.4e-4 -0.160573,-4.7e-4 -0.240858,6e-5 -0.101741,0.002 -0.203495,0.006 -0.304963,0.0158 -0.123769,0.0138 -0.247437,0.0341 -0.371908,0.03 -0.126242,-1.5e-4 -0.25249,-2.3e-4 -0.378728,-10e-4 -0.14227,-3e-4 -0.284539,-5.3e-4 -0.4268,10e-4 -0.0953,0.002 -0.190869,0.002 -0.285657,0.0158 -0.08732,0.0158 -0.173029,0.039 -0.259329,0.0613 -0.03712,0.0118 -0.07458,0.0223 -0.110518,0.0391 -0.08613,0.0402 -0.234772,0.16523 0.122303,-0.10688 -0.04537,0.0367 -0.09855,0.0806 -0.113572,0.15104 3.76e-4,0.004 -8.07e-4,0.01 0.0012,0.0138 0.01701,0.0309 0.09664,-0.004 0.118564,-0.008 0.05998,-0.0254 0.117418,-0.0613 0.179454,-0.0781 0.07231,-0.0118 0.14517,-0.004 0.21791,-0.006 0.112823,2e-4 0.225659,5.1e-4 0.338482,-0.001 0.07527,-5.1e-4 0.150604,-0.002 0.225841,0.002 0.04767,0.004 0.100719,0.006 0.138133,0.0495 0.004,0.008 0.0096,0.0158 0.01206,0.0256 0.02787,0.1118 -0.201297,0.20955 -0.303182,0.22749 -0.0448,0.008 -0.08953,0.0158 -0.134607,0.0215 -0.06251,0.0138 -0.122471,0.0384 -0.183174,0.0613 -0.07584,0.0245 -0.151689,0.0491 -0.225329,0.0834 -0.04413,0.0199 -0.08942,0.0347 -0.133523,0.0548 -0.02197,0.008 -0.04465,0.0158 -0.0663,0.0252 -0.08513,0.039 -0.209378,0.17017 0.164079,-0.13073 -0.02275,0.0178 -0.06482,0.0406 -0.0682,0.0777 0.002,0.0282 0.06758,0.008 0.08211,0.01 0.04824,-0.004 0.09618,-0.0118 0.144025,-0.0205 0.05967,-0.008 0.119861,-0.0118 0.178138,-0.0312 0.05025,-0.0138 0.101146,-0.0199 0.151613,-0.0323 0.04593,-0.0158 0.09047,-0.0385 0.133248,-0.0657 -0.06956,0.0526 -0.139125,0.10529 -0.208685,0.15774 0.0055,-0.004 0.01114,-0.008 0.01636,-0.0118 0.009,-0.008 0.01526,-0.0203 0.02456,-0.0274 0.197837,-0.15242 0.160376,-0.12738 0.253408,-0.18831 0.08191,-0.0455 0.204697,-0.14769 -0.185029,0.14276 -0.0055,0.004 0.01053,-0.01 0.01591,-0.0138 0.231294,-0.17608 0.163522,-0.12777 0.265604,-0.1999 0.02645,-0.0177 0.0537,-0.0319 0.08049,-0.0485 0.08512,-0.0524 0.23388,-0.17727 -0.134561,0.1053 0.0084,-0.006 0.04172,-0.0353 0.05036,-0.0337 0.0041,5.1e-4 0.01236,0.004 0.01038,0.008 -0.0056,0.0118 -0.03094,-0.0225 -0.03389,-10e-4 -0.04961,-5.1e-4 -0.09924,-0.002 -0.148758,-0.006 -0.0407,-0.004 -0.08007,-0.0138 -0.117937,-0.0343 -0.03877,-0.0158 -0.07584,-0.0363 -0.114824,-0.0505 -0.06373,-0.0254 -0.125219,-0.0596 -0.18973,-0.0822 -0.09902,-0.0361 -0.198021,-0.0738 -0.299071,-0.0994 -0.10916,-0.031 -0.215538,-0.0745 -0.32208,-0.11792 -0.08248,-0.0313 -0.166234,-0.0574 -0.247412,-0.0942 -0.0467,-0.0247 -0.09472,-0.0511 -0.128471,-0.10135 -0.08042,-0.17688 0.16582,-0.22676 0.276146,-0.26259 0.03639,-0.0138 0.0721,-0.0313 0.110733,-0.0292 0.04648,3e-5 0.09295,-5.2e-4 0.13943,-2.6e-4 0.06046,3.5e-4 0.12096,5.3e-4 0.181407,0.002 0.05737,0.004 0.115556,0.006 0.170557,0.0296 0.04903,0.0203 0.09819,0.0402 0.147751,0.058 0.05642,0.0177 0.112533,0.0371 0.167996,0.059 0.04989,0.0207 0.100398,0.0388 0.150376,0.0592 0.05352,0.0209 0.104305,0.0515 0.157499,0.0737 0.04274,0.0252 0.08561,0.0513 0.1258,0.0826 0.0465,0.04 0.08419,0.0948 0.125585,0.14315 0.01951,0.0239 0.04297,0.0473 0.05927,0.0751 0.0056,0.01 0.02226,0.0233 0.01481,0.0304 -0.204588,0.19765 -0.148941,0.21751 -0.245066,0.17608 -0.05062,-0.0217 -0.103696,-0.0351 -0.150437,-0.0698 -0.07323,-0.0566 -0.144804,-0.11575 -0.209856,-0.18772 -0.04512,-0.0455 -0.09632,-0.0909 -0.134805,-0.14611 -0.0075,-0.01 -0.02856,-0.0258 -0.01987,-0.0347 0.07129,-0.0737 0.155416,-0.12363 0.233119,-0.18555 0.03728,0.0138 0.07144,0.0392 0.109161,0.0521 0.05505,0.0282 0.108671,0.0611 0.164314,0.0876 0.06532,0.0319 0.13189,0.0603 0.201454,0.0722 0.0099,0.002 0.01971,0.004 0.02965,0.004 0.0066,5e-4 0.02508,-0.006 0.01971,-5.1e-4 -0.253378,0.23086 -0.145705,0.23143 -0.23648,0.16406 -0.06883,-0.0489 -0.13247,-0.10767 -0.180158,-0.18989 -0.03288,-0.058 -0.06956,-0.12403 -0.08167,-0.196 -0.002,-0.0118 -0.0093,-0.0312 -0.0012,-0.039 0.07451,-0.0728 0.158425,-0.12798 0.237636,-0.19186 0.04575,0.004 0.08863,0.0323 0.133721,0.0424 0.05034,0.0197 0.09669,0.0493 0.144926,0.0759 0.04401,0.026 0.08718,0.0544 0.132348,0.0771 0.05781,0.0309 0.112335,0.0712 0.165314,0.11417 0.05128,0.0426 0.105283,0.0781 0.16296,0.10411 0.03239,0.0138 0.06385,0.0321 0.09608,0.0471 0.113404,0.0532 0.1609,-0.0495 -0.154749,0.18772 0.0044,0.002 0.0087,0.008 0.01328,0.008 0.0017,-5.3e-4 4.03e-4,-0.01 -0.01595,-0.0298 -0.02064,-0.0239 -0.0455,-0.0396 -0.07121,-0.0523 -0.06117,-0.0304 -0.122899,-0.0582 -0.181349,-0.097 -0.0305,-0.0118 -0.03312,-0.0158 -0.06448,-0.0223 -0.0085,-0.002 -0.03264,0.002 -0.0256,-0.004 0.130073,-0.11988 0.283876,-0.10253 0.201773,-0.18456 -0.0012,-0.001 0.002,0.004 0.0029,0.004 0.05015,0.0349 0.106076,0.0564 0.152238,0.10135 0.0545,0.0479 0.101298,0.10432 0.137171,0.17648 0.02952,0.0619 0.06587,0.12029 0.0844,0.1895 0.02626,0.18121 -0.198462,0.29126 -0.290067,0.18594 -0.05445,-0.0611 -0.100383,-0.13389 -0.155703,-0.19403 -0.05143,-0.0601 -0.10681,-0.11436 -0.167832,-0.15735 -0.063,-0.0451 -0.123188,-0.0968 -0.188226,-0.13704 -0.05479,-0.0294 -0.108764,-0.0613 -0.164406,-0.0881 -0.07156,-0.0392 -0.139553,-0.0887 -0.209122,-0.1333 -0.002,-0.002 -0.05952,-0.0406 -0.0624,-0.0428 -0.0079,-0.006 -0.01556,-0.0118 -0.02314,-0.0177 -0.0052,-0.004 -0.02,-0.008 -0.01526,-0.0138 0.194266,-0.2097 0.12934,-0.23003 0.22005,-0.19858 0.03494,0.0118 0.06788,0.0278 0.09909,0.0515 0.05204,0.0327 0.102352,0.0704 0.144178,0.12285 0.04273,0.0629 0.08352,0.12777 0.124242,0.19285 0.04282,0.0694 0.08709,0.13763 0.13737,0.1983 0.02209,0.0225 0.04369,0.0453 0.06769,0.0643 0.0043,0.004 0.01737,0.006 0.01313,0.01 -0.233272,0.18417 -0.276666,0.0633 -0.217275,0.19521 -0.03041,-0.0177 -0.06245,-0.0308 -0.09118,-0.053 -0.03586,-0.0284 -0.06997,-0.0603 -0.106672,-0.087 -0.05257,-0.039 -0.107984,-0.0714 -0.16149,-0.10825 -0.04106,-0.0258 -0.08261,-0.0487 -0.124883,-0.0708 -0.04586,-0.025 -0.09196,-0.0457 -0.141324,-0.0566 -0.06527,-0.0211 -0.131294,-0.0371 -0.196943,-0.0562 -0.05011,-0.0138 -0.0996,-0.0268 -0.151383,-0.0215 -0.05295,-1.6e-4 -0.105909,-5.1e-4 -0.158865,-4.1e-4 -0.04326,1.5e-4 -0.08655,-5.2e-4 -0.129783,0.002 -0.02189,0.002 -0.04515,0.004 -0.06569,0.0138 -0.0044,0.002 -0.01669,0.0118 -0.01267,0.008 0.07202,-0.0558 0.144239,-0.11102 0.216349,-0.16642 -0.03377,0.0158 -0.01696,0.0321 0.0055,0.0521 0.03615,0.0264 0.07533,0.0426 0.113541,0.0633 0.04125,0.0205 0.08516,0.0347 0.120807,0.07 0.04375,0.0465 0.08336,0.0978 0.103329,0.168 0.02213,0.0688 0.04231,0.13743 0.05819,0.20895 3.6e-5,1.4e-4 0.01591,0.0544 0.01313,0.057 -0.154035,0.14237 -0.182575,0.25235 -0.287726,0.14572 -0.04958,-0.0627 -0.08223,-0.14059 -0.09791,-0.22814 -0.0024,-0.0335 -0.005,-0.0473 -0.0012,-0.0805 0.01728,-0.15282 0.168259,-0.26334 0.283584,-0.2442 0.0608,0.0219 0.117938,0.0558 0.175785,0.0879 0.06312,0.0394 0.122456,0.0885 0.181365,0.13743 0.08176,0.0692 0.166963,0.13172 0.255738,0.18477 0.03792,0.0227 0.05952,0.0375 0.09942,0.0538 0.0142,0.006 0.02859,0.0118 0.04338,0.0138 0.0079,0.001 0.02981,-0.01 0.02354,-0.004 -0.206337,0.20613 -0.164862,0.28161 -0.216531,0.17115 -0.07556,-0.086 -0.157113,-0.16327 -0.223834,-0.26172 -0.05527,-0.0767 -0.108214,-0.15656 -0.184428,-0.19882 -0.01878,-0.01 -0.04567,-0.0264 -0.06556,-0.0335 -0.04593,-0.0158 -0.09356,-0.0138 -0.140606,-0.0118 -0.067,0.002 -0.134088,0.008 -0.199977,0.0239 -0.08751,0.0229 -0.174427,0.0499 -0.259809,0.0836 -0.06251,0.0211 -0.124257,0.0446 -0.185932,0.0696 -0.08716,0.0311 -0.173326,0.0659 -0.258028,0.10707 -0.106962,0.0503 -0.210887,0.11003 -0.316669,0.16406 -0.08125,0.0452 -0.161897,0.0925 -0.242332,0.14 -0.04537,0.0284 -0.09077,0.0564 -0.135614,0.0864 -0.01435,0.01 -0.05677,0.0394 -0.04302,0.0286 0.112183,-0.0885 0.268048,-0.2011 0.161102,-0.12363 -0.0142,0.0158 -0.02945,0.0282 -0.04254,0.0446 -0.02395,0.0302 -0.04181,0.0688 -0.0675,0.0972 -0.04535,0.0741 -0.09457,0.14434 -0.137752,0.22067 -0.06329,0.1191 -0.128134,0.23725 -0.183716,0.36276 -0.05068,0.12087 -0.09495,0.24569 -0.137278,0.37183 -0.09423,0.24409 -0.121098,0.32695 -0.384853,0.42948 -0.05996,0.0138 -0.09191,-0.006 -0.07584,-0.0905 0.01725,-0.0629 0.03983,-0.12344 0.05799,-0.18614 0.02755,-0.0716 0.04398,-0.15045 0.08048,-0.21633 0.02859,-0.0651 0.05772,-0.13014 0.09067,-0.19167 0.04274,-0.0718 0.07619,-0.15045 0.103558,-0.23386 0.0269,-0.0927 0.05137,-0.18633 0.07655,-0.27962 0.037,-0.0915 0.0811,-0.17766 0.127966,-0.26111 0.01038,-0.0177 0.04366,-0.0747 0.05424,-0.0913 0.04436,-0.0692 0.0993,-0.12501 0.14572,-0.19166 0.08504,-0.10825 0.176108,-0.20931 0.276256,-0.29374 0.158081,-0.13606 0.320892,-0.26232 0.488905,-0.37714 0.07608,-0.0536 0.153638,-0.10312 0.233967,-0.14532 0.06518,-0.0365 0.13018,-0.0741 0.197186,-0.10451 0.04576,-0.0138 0.09194,-0.0241 0.138454,-0.0329 0.03622,-0.01 0.07268,-0.01 0.109496,-0.01 0.04554,-0.004 0.09073,-0.01 0.13595,-0.0177 0.04729,-0.002 0.09466,-10e-4 0.14198,-0.002 0.03688,-3e-4 0.07373,-1.2e-4 0.110595,-1.4e-4 0.0376,2e-5 0.07523,6e-5 0.112854,1.4e-4 0.04067,8e-5 0.08133,4e-5 0.121998,-1.2e-4 0.03897,6e-5 0.07799,1.6e-4 0.116976,3e-4 0.04062,9e-5 0.08124,-6e-5 0.121861,2.9e-4 0.04917,8e-5 0.0984,2.4e-4 0.147475,-0.004 0.05306,-0.006 0.105619,-0.0177 0.156781,-0.0367 0.05227,-0.0158 0.105329,-0.0272 0.159092,-0.0292 0.05781,1.4e-4 0.115633,-2.2e-4 0.173445,5.1e-4 0.06118,0.001 0.122608,0.004 0.183038,0.0177 0.05581,0.0138 0.109145,0.0385 0.16324,0.0607 0.0475,0.0158 0.096,0.03 0.144819,0.0357 0.01023,-5.1e-4 0.02238,-1.6e-4 0.03239,-0.004 0.0032,-0.002 0.01206,-0.01 0.0092,-0.006 -0.07231,0.059 -0.286852,0.13369 -0.211836,0.18673 0.0012,10e-4 -0.0017,-0.002 -0.0024,-0.004 -0.04558,-0.0373 -0.101146,-0.0519 -0.152778,-0.0686 -0.05963,-0.0118 -0.119678,-0.0178 -0.179957,-0.0138 -0.06799,-4e-4 -0.135996,-6e-5 -0.204003,-4e-5 -0.0739,-2.8e-4 -0.147781,-10e-4 -0.22167,-2.8e-4 -0.0646,2e-4 -0.129187,3.6e-4 -0.193784,10e-4 -0.04062,8e-5 -0.08126,5.3e-4 -0.121892,3.7e-4 -0.03757,2e-4 -0.07512,5e-4 -0.11261,0.004 -0.04392,0.004 -0.08753,0.0118 -0.131157,0.0177 -0.04839,0.004 -0.09687,5.2e-4 -0.145292,0.002 -0.0387,3.4e-4 -0.07738,3.9e-4 -0.116076,1.2e-4 -0.03732,-1.2e-4 -0.07461,-4.4e-4 -0.111923,10e-4 -0.03757,0.002 -0.07577,0.004 -0.11145,0.0211 -0.03735,0.0178 -0.07544,0.0331 -0.112808,0.0513 -0.02068,0.0118 -0.04103,0.0233 -0.06133,0.0357 -0.0076,0.004 -0.02989,0.0197 -0.02265,0.0138 0.178672,-0.13743 0.278925,-0.20418 0.186996,-0.14256 -0.03146,0.0268 -0.04514,0.0471 -0.01191,0.086 0.03426,0.0294 0.07561,0.045 0.102704,0.0874 0.03119,0.0479 0.04836,0.10313 0.05662,0.16505 0.0073,0.0467 0.0081,0.0909 0.0085,0.13842 8.8e-5,0.008 0.0061,0.0215 4.04e-4,0.0264 -0.07678,0.0645 -0.159548,0.11614 -0.239323,0.17411 0.0061,-0.0674 0.002,-0.13625 0.01282,-0.20307 0.02702,-0.15519 8.07e-4,-0.0457 0.244084,-0.23895 0.0058,-0.004 0.01343,-0.004 0.02032,-0.004 0.02609,10e-4 0.05027,0.0197 0.07474,0.0284 0.07107,0.0349 0.143323,0.0655 0.217201,0.0889 0.03325,0.008 0.06982,0.0211 0.104031,0.0158 0.0076,-10e-4 0.0288,-0.0138 0.0223,-0.008 -0.204062,0.16938 -0.298173,0.17076 -0.203469,0.16701 0.01038,-0.0402 -0.04219,-0.0777 -0.05961,-0.10096 -0.04711,-0.0363 -0.100062,-0.0534 -0.154935,-0.0546 -0.05419,10e-5 -0.108427,-5.3e-4 -0.162573,0.004 -0.0269,0.002 -0.05413,0.004 -0.08029,0.0138 -0.08217,0.0298 -0.241208,0.21177 0.18261,-0.14355 -0.0044,0.004 -0.0087,0.006 -0.01313,0.01 -0.0043,0.002 -0.0087,0.004 -0.01282,0.008 -0.01931,0.0138 -0.0047,0.006 -0.0231,0.025 -0.07845,0.0781 -0.272345,-0.0603 -0.25684,0.19284 -0.03691,0.0237 -0.07504,0.039 -0.11638,0.0438 -0.04699,0.0138 -0.09098,0.0371 -0.133356,0.0667 -0.03882,0.0246 -0.08046,0.0369 -0.120746,0.0566 -0.04015,0.0158 -0.08116,0.0282 -0.121952,0.0418 -0.03732,0.0138 -0.07265,0.0361 -0.111633,0.041 -0.01099,3.9e-4 -0.03029,0.004 -0.04103,-0.004 -0.02996,-0.0197 -0.02896,-0.054 -0.006,-0.0797 0.0418,-0.0455 0.08298,-0.0921 0.125997,-0.13547 0.02464,-0.0254 0.04958,-0.0536 0.07666,-0.0747 0.171507,-0.13349 0.451099,-0.34109 0.05184,-0.0428 -0.0089,0.006 0.01765,-0.0138 0.02645,-0.0199 0.127249,-0.0954 0.252224,-0.20046 0.388685,-0.27387 0.0419,-0.0207 0.08483,-0.0379 0.127585,-0.0552 0.0498,-0.0203 0.100841,-0.0339 0.151078,-0.0523 0.0487,-0.0177 0.09649,-0.039 0.145491,-0.0554 0.06385,-0.0201 0.127295,-0.0426 0.191386,-0.0617 0.04361,-0.0138 0.0851,-0.0355 0.128913,-0.0481 0.04497,-0.01 0.09058,-0.008 0.135843,-0.0138 0.04314,-0.008 0.08565,-0.0203 0.12899,-0.0262 0.0496,-0.008 0.09911,-0.0158 0.149246,-0.0118 0.05189,-1.8e-4 0.103802,-2e-4 0.155662,0.002 0.04555,0.004 0.09112,0.01 0.133905,0.0315 0.03929,0.0197 0.07918,0.0357 0.118288,0.0552 0.0349,0.0177 0.07075,0.0306 0.105527,0.0481 0.03554,0.0138 0.07297,0.0158 0.107802,0.0337 0.03335,0.0118 0.06506,0.029 0.09724,0.0453 0.04328,0.0118 0.08674,0.0229 0.129051,0.0398 0.05283,0.0241 0.103084,0.0562 0.155665,0.0812 0.05295,0.0286 0.107603,0.056 0.152977,0.10254 0.03789,0.0457 0.07695,0.0917 0.09447,0.15676 0.002,0.0118 0.0055,0.0221 0.0061,0.0335 4.04e-4,0.01 0.0032,0.0231 -0.0032,0.0282 -0.170415,0.14236 -0.190497,0.2281 -0.3222,0.14729 -0.07059,-0.0416 -0.14195,-0.081 -0.211984,-0.12442 -0.07933,-0.0463 -0.156955,-0.0972 -0.235761,-0.14493 -0.06465,-0.0377 -0.128562,-0.0781 -0.194977,-0.11042 -0.06159,-0.0264 -0.124486,-0.0432 -0.188805,-0.0546 -0.07268,-0.01 -0.145674,-0.008 -0.218725,-0.008 -0.06442,-3.9e-4 -0.128867,1.2e-4 -0.193203,-0.004 -0.0557,-0.004 -0.110962,-0.0138 -0.166632,-0.0178 -0.05247,-6e-5 -0.104947,5.3e-4 -0.157395,-0.002 -0.05037,-0.002 -0.100657,-0.008 -0.150558,-0.0177 -0.05076,-0.008 -0.10191,-0.008 -0.152895,-0.0118 -0.04848,-0.004 -0.09863,-0.0158 -0.14633,10e-4 -0.09596,0.0432 -0.01777,0.01 0.193493,-0.15104 0.0049,-0.004 -0.01038,0.006 -0.01534,0.01 -0.01298,0.01 -0.01684,0.0158 -0.02827,0.0278 -0.08074,0.0615 -0.162512,0.12048 -0.243769,0.18082 -0.03546,0.0221 -0.07191,0.0418 -0.111114,0.0497 -0.05737,0.0118 -0.115816,0.0207 -0.171434,0.0434 -0.08933,0.0428 -0.19565,0.14 0.163841,-0.13409 0.0032,-0.002 -0.04899,0.0389 -0.04358,0.0467 -0.0085,0.0353 -0.01038,0.069 0.01696,0.0909 0.04407,0.0219 0.09199,0.0118 0.138087,0.01 0.04778,-0.004 0.09509,-0.0138 0.142835,-0.0197 0.04444,-5.2e-4 0.0889,-0.002 0.133157,-0.008 0.04703,-0.006 0.09385,-0.0177 0.141293,-0.0158 0.04789,-2e-5 0.09585,7e-5 0.143568,0.006 0.06175,0.01 0.121753,0.0282 0.178574,0.0617 0.07811,0.0396 0.158016,0.0739 0.234347,0.1193 0.08016,0.0444 0.161312,0.0858 0.23877,0.13802 0.04941,0.0457 0.107695,0.10668 0.10081,0.19364 -0.214266,0.16977 -0.186789,0.21834 -0.36118,0.18082 -0.06414,-0.0158 -0.125615,-0.0438 -0.186422,-0.0747 -0.04992,-0.0229 -0.09922,-0.0479 -0.148224,-0.0739 -0.04321,-0.0177 -0.08536,-0.0394 -0.129386,-0.0534 -0.0095,-0.001 -0.02528,-0.004 -0.03554,-0.004 -0.0037,4.9e-4 -0.0145,0.006 -0.0113,0.004 0.07129,-0.057 0.293585,-0.15715 0.211099,-0.17667 -0.0012,-2.4e-4 -0.0017,0.002 -0.0024,0.002 0.029,0.0388 0.06668,0.0678 0.100368,0.099 0.03587,0.0247 0.07187,0.0499 0.109374,0.07 0.03853,0.0197 0.07854,0.0325 0.117388,0.0505 0.05723,0.0197 0.1138,0.0408 0.168235,0.0714 0.05138,0.0258 0.102704,0.0521 0.153405,0.0803 0.0067,0.004 0.01359,0.008 0.02007,0.0118 0.0049,0.004 0.01833,0.008 0.01404,0.0118 -0.193232,0.21006 -0.134332,0.21909 -0.254364,0.19878 -0.04654,-0.01 -0.09115,-0.0294 -0.134164,-0.0548 -0.04799,-0.0233 -0.09597,-0.0461 -0.143308,-0.0716 -0.05393,-0.0258 -0.106825,-0.0554 -0.161875,-0.0771 -0.106245,-0.0306 -0.03308,-0.002 0.185227,-0.19837 8.08e-4,-5.1e-4 8.08e-4,0.002 0.0012,0.002 0.0032,0.004 0.0064,0.006 0.0098,0.008 0.006,0.004 0.01221,0.008 0.01818,0.0118 0.0061,0.004 0.01237,0.008 0.0185,0.0118 0.05089,0.0337 0.103466,0.0649 0.147063,0.11378 0.01911,0.0211 0.03264,0.0351 0.0501,0.0582 0.02719,0.0361 0.04952,0.0775 0.08687,0.0978 0.02459,0.0158 0.04917,0.031 0.07512,0.0432 0.0046,0.002 0.009,0.004 0.01374,0.006 0.004,10e-4 0.01511,-0.002 0.01191,10e-4 -0.07101,0.0631 -0.144804,0.12087 -0.217198,0.18121 0.0012,-5.3e-4 0.0032,-4.9e-4 0.0032,-0.002 -0.0012,-0.0178 -0.05086,-0.0771 -0.04638,-0.10273 -0.0085,-0.0418 -0.01282,-0.083 -0.0087,-0.1262 0.0789,-0.0592 0.212699,-0.2699 0.244271,-0.15932 0.0066,0.0231 -0.0041,0.0505 -0.01267,0.0698 -0.01511,0.0225 -0.03416,0.0442 -0.05407,0.0593 -0.238698,0.18161 -0.163289,0.13152 -0.271013,0.20188 -0.06825,0.0394 -0.139781,0.0659 -0.214226,0.0769 -0.03352,0.004 -0.13563,0.031 -0.140957,-0.044 -4.05e-4,-0.006 0.0043,-0.0118 0.0063,-0.0197 0.01846,-0.0276 0.03845,-0.0471 0.0608,-0.0692 0.100139,-0.0992 0.189152,-0.18102 0.315965,-0.25056 0.04677,-0.0319 0.09332,-0.0645 0.14804,-0.0576 0.04398,0.002 0.08794,0.004 0.13163,0.0118 0.0545,0.008 0.109084,0.0178 0.163167,0.0294 0.05048,0.0158 0.09838,0.0428 0.147444,0.0649 0.04709,0.0229 0.09545,0.0391 0.14627,0.0349 0.04535,-3.4e-4 0.0907,-1.8e-4 0.136057,-10e-5 0.04604,-1.8e-4 0.09208,-6e-5 0.138118,3.9e-4 0.06672,5.1e-4 0.133447,0.001 0.200175,4.6e-4 0.06443,-5.2e-4 0.129936,0.002 0.193595,-0.0118 -0.07217,0.0613 -0.146819,0.11812 -0.216523,0.18398 -0.0037,0.004 0.0095,0.008 0.0082,0.0138 -1.45e-4,5.1e-4 -0.06018,-0.0158 -0.06308,-0.008 -0.03632,6e-5 -0.07263,2.6e-4 -0.108931,-10e-4 -0.03998,-0.002 -0.07993,-0.006 -0.11922,-0.0158 -0.04358,-0.0118 -0.08756,-0.0207 -0.130241,-0.0369 -0.04857,-0.0197 -0.09692,-0.0406 -0.146728,-0.0542 -0.06559,-0.0158 -0.13189,-0.031 -0.19885,-0.0331 -0.06089,3.1e-4 -0.121891,-1.4e-4 -0.182638,0.006 -0.01023,0.002 -0.02071,0.002 -0.03094,0.004 -0.0089,0.002 -0.03384,0.0138 -0.02633,0.008 0.06901,-0.0596 0.143995,-0.10707 0.212106,-0.16839 0.0043,-0.004 -0.0081,-0.008 -0.01282,-0.01 -0.0017,-10e-4 0.002,0.004 0.0032,0.006 0.0066,0.004 0.01313,0.008 0.01971,0.0118 0.0485,0.0213 0.09867,0.029 0.149658,0.0339 0.08081,0.006 0.161905,0.002 0.242801,0.004 0.09484,-4e-5 0.189717,-10e-4 0.284541,0.002 0.06123,0.002 0.122228,0.008 0.183042,0.0177 0.0081,4e-4 0.01632,0.001 0.02447,0.001 0.0067,10e-5 0.0254,-0.006 0.02027,-4.7e-4 -0.196212,0.2178 -0.122731,0.20392 -0.237768,0.20284 -0.04268,-10e-5 -0.08535,-3.2e-4 -0.128028,-5.1e-4 -0.05187,-1.8e-4 -0.103756,3.9e-4 -0.155622,3e-5 -0.07132,-5.3e-4 -0.142622,-10e-4 -0.213938,-10e-4 -0.08101,-4.5e-4 -0.162072,3.5e-4 -0.243015,-0.006 -0.04639,-0.004 -0.09474,-0.006 -0.140026,-0.0209 -0.009,-0.004 -0.03291,-0.004 -0.02621,-0.0118 0.06404,-0.0777 0.138698,-0.1396 0.208052,-0.20931 0.04465,10e-4 0.08939,-5.3e-4 0.134057,5.1e-4 0.08367,1.8e-4 0.167375,3.6e-4 0.250988,-0.004 0.112488,-0.008 0.224678,-0.0205 0.335795,-0.045 0.03312,-0.006 0.06645,-0.01 0.09934,-0.0177 0.01175,-0.002 0.04482,-0.0197 0.0349,-0.0118 -0.05615,0.0495 -0.271837,0.15026 -0.187359,0.1682 0.0012,2.4e-4 4.03e-4,-0.002 8.08e-4,-0.004 -0.06449,-0.053 -0.142652,-0.0722 -0.212845,-0.10865 -0.08738,-0.041 -0.175044,-0.0836 -0.266529,-0.10687 -0.100627,-0.0241 -0.202187,-0.041 -0.302859,-0.0649 -0.01237,-0.002 -0.02513,-0.004 -0.0374,-0.006 -0.0096,-0.004 -0.03558,-0.004 -0.02807,-0.0138 0.163426,-0.18339 0.152085,-0.22085 0.283343,-0.18831 0.09165,0.026 0.181051,0.0629 0.268868,0.10549 0.04077,0.0199 0.05531,0.0258 0.09425,0.0493 0.01099,0.006 0.02152,0.0138 0.03244,0.0213 0.0072,0.004 0.02778,0.006 0.02177,0.0138 -0.193422,0.22008 -0.136546,0.26034 -0.217235,0.19928 -0.05262,-0.0177 -0.106352,-0.031 -0.158668,-0.0507 -0.06361,-0.0158 -0.127417,-0.0158 -0.192089,-0.0158 -0.06972,-1.2e-4 -0.139415,0.001 -0.20912,0.001 -0.05624,8e-5 -0.112473,1.8e-4 -0.168707,-0.002 -0.04842,-0.002 -0.09715,-0.002 -0.144957,-0.0138 -0.0052,-0.001 -0.01053,-0.002 -0.01575,-0.004 -0.0041,-10e-4 -0.01571,4.7e-4 -0.01236,-0.004 0.207561,-0.21096 0.132683,-0.20945 0.260091,-0.1958 0.06318,0.008 0.126364,0.0177 0.189903,0.0158 0.06156,2.8e-4 0.12351,-4.5e-4 0.184558,0.0118 0.05363,0.0158 0.102,0.0465 0.150894,0.0781 0.06326,0.0331 0.127692,0.0592 0.196101,0.0672 0.07324,0.0118 0.146758,0.008 0.22038,0.008 0.06732,1.4e-4 0.134652,-2.8e-4 0.201973,2.7e-4 0.07953,4.8e-4 0.159054,2e-5 0.238583,4.2e-4 0.07304,-3.8e-4 0.146101,1.9e-4 0.219125,-0.002 0,0 -0.21635,0.20304 -0.21635,0.20304 z"
         id="path933"
         style="opacity:1;fill:#008080;fill-opacity:1;stroke:#011400;stroke-width:0;stroke-miterlimit:4;stroke-dasharray:none;stroke-opacity:1" />
    </g>
    <text
       xml:space="preserve"
       style="font-style:normal;font-weight:normal;font-size:10.58333397px;line-height:1.25;font-family:sans-serif;letter-spacing:0px;word-spacing:0px;fill:#000000;fill-opacity:1;stroke:none;stroke-width:0.26458335"
       x="60.854168"
       y="326.10416"
       id="text851"><tspan
         sodipodi:role="line"
         id="tspan849"
         x="60.854168"
         y="335.75964"
         style="stroke-width:0.26458335" /></text>
  </g>
</svg>
