<?xml version="1.0" encoding="UTF-8"?>
<!-- Created with Inkscape (http://www.inkscape.org/) -->
<svg width="300" height="150" version="1.1" viewBox="0 0 79.375 39.688" xmlns="http://www.w3.org/2000/svg" xmlns:cc="http://creativecommons.org/ns#" xmlns:dc="http://purl.org/dc/elements/1.1/" xmlns:rdf="http://www.w3.org/1999/02/22-rdf-syntax-ns#">
 <metadata>
  <rdf:RDF>
   <cc:Work rdf:about="">
    <dc:format>image/svg+xml</dc:format>
    <dc:type rdf:resource="http://purl.org/dc/dcmitype/StillImage"/>
    <dc:title/>
   </cc:Work>
  </rdf:RDF>
 </metadata>
 <g transform="translate(0 -257.31)">
  <text x="2.6726952" y="199.17934" fill="#000000" font-family="sans-serif" font-size="10.583px" letter-spacing="0px" stroke-width=".26458" word-spacing="0px" style="line-height:1.25" xml:space="preserve"><tspan x="2.6726952" y="208.83484" stroke-width=".26458"/></text>
  <text transform="matrix(1.0389 -.00078341 .00084551 .96257 0 0)" x="9.2150421" y="301.25391" fill="#008080" font-family="sans-serif" font-size="21.026px" letter-spacing="0px" stroke-width=".52565" word-spacing="0px" style="line-height:1.25" xml:space="preserve"><tspan x="9.2150421" y="301.25391" fill="#008080" font-family="Calibri" font-size="12.927px" stroke-width=".52565" style="font-feature-settings:normal;font-variant-caps:normal;font-variant-ligatures:normal;font-variant-numeric:normal"><tspan x="9.2150421" y="301.25391" fill="#008080" font-family="Calibri" font-size="12.927px" stroke-width=".52565" style="font-feature-settings:normal;font-variant-caps:normal;font-variant-ligatures:normal;font-variant-numeric:normal">Bookworm</tspan></tspan></text>
  <g transform="matrix(1.0287 0 0 .99563 -.17109 4.091)">
   <path d="m2.7384 272.2s0-10.434 8.0777-10.434c8.0777 0 8.0777 5.2171 8.0777 5.2171s0 5.2171 6.0583 5.2171c6.0583 0 6.0583-5.2171 6.0583-5.2171s0-5.2171 8.0777-5.2171c8.0777 0 8.0777 5.2171 8.0777 5.2171s0 5.2171 8.0777 5.2171c8.0777 0 8.0777-5.2171 8.0777-5.2171s0-5.2171 6.0583-5.2171c6.0583 0 6.0583 10.434 6.0583 10.434s0 2.6086-2.0194 0c-2.0194-2.6086 0-2.6086-4.0389-7.8257-4.0389-5.2171 0 0 0 0s-4.0389 0-4.0389 7.8257-18.175 2.6086-18.175 2.6086-4.0389-2.6086-4.0389-7.8257v0s-2.0194-5.2171-8.0777 0c0 0 2e-6 7.8257-8.0777 7.8257-8.0777 0-8.0777 0-10.097-2.6086-2.0194-2.6086-2.0194-2.6086-2.0194-2.6086s-2.0194-5.2172-6.0583-2.6086c-4.0389 2.6086-4.0389 5.2171-4.0389 5.2171s-2.0194 5.2171-2.0194 0z" fill="none" stroke="#000" stroke-width=".45904px"/>
   <g fill="#008080">
    <path d="m54.272 275.92c-1.8116-0.25267-3.9452-0.65865-5.6071-1.0669-1.2323-0.30274-1.4828-0.40998-2.0349-0.87086-1.3135-1.0966-2.4997-2.981-2.9512-4.6883-0.18703-0.70724-0.24372-1.2722-0.28679-2.8578-0.05066-1.8653-0.06512-1.9763-0.25767-1.9763-0.17705 0-0.20806 0.10108-0.23476 0.76525l-0.03078 0.76526-0.37257-0.42256c-0.66945-0.75926-1.3837-1.0904-2.4803-1.1497-0.77276-0.0418-1.1409 5e-3 -1.7648 0.22651-0.874 0.30973-1.9579 0.94265-2.8279 1.6514l-0.57126 0.46532-0.12138 0.94941c-0.39255 3.0704-2.187 5.4477-4.7598 6.3058-1.3724 0.45769-3.2945 0.57656-6.7769 0.41912-3.2652-0.14762-3.9415-0.26976-4.686-0.84617-0.53452-0.41385-3.328-4.0039-3.7843-4.8634-0.51392-0.96807-1.1977-1.7335-2.0103-2.2502-0.83828-0.53308-2.0083-0.65568-2.9353-0.30757-1.3572 0.50967-3.1246 1.9342-4.141 3.3377-0.5869 0.81043-1.1054 1.9388-1.1076 2.4105-0.00121 0.26106-0.70748 1.6766-1.0078 2.02-0.38439 0.43947-0.47251 0.12457-0.4693-1.6769 0.00364-1.9464 0.24007-3.2434 0.92583-5.0749 0.35208-0.94036 0.63535-1.4649 1.2096-2.2398 1.6947-2.2869 3.5152-3.0062 6.9962-2.7647 2.9333 0.20358 5.2171 1.4576 6.0672 3.3314 0.14446 0.31842 0.3184 1.0225 0.39914 1.6158 0.17675 1.2986 0.358 1.8712 0.8689 2.7454 0.81884 1.4009 2.2826 2.2733 4.2952 2.5599 2.3851 0.33964 4.8015-0.38657 6.0207-1.8094 0.825-0.96279 1.2233-1.9648 1.4222-3.5782 0.39456-3.2004 3.092-4.9 7.7773-4.9003 2.5786-1.9e-4 3.9472 0.30094 5.4455 1.1982 1.4286 0.85551 2.239 2.098 2.46 3.772 0.35234 2.6681 2.1747 4.4064 5.3736 5.1257 1.3663 0.30723 4.4036 0.31627 5.7671 0.0172 3.3591-0.73688 5.1914-2.5174 5.5021-5.3465 0.23768-2.1647 1.2297-3.5777 3.0307-4.3164l0.78398-0.32159 0.71446 0.9229c0.61336 0.79229 0.68636 0.93387 0.51586 1.0004-0.62927 0.24566-1.5132 0.95097-1.9648 1.5678-0.94865 1.2957-1.4052 2.9753-1.5403 5.6666-0.07124 1.4189-0.11831 1.7192-0.34916 2.2281-0.43153 0.95116-1.4445 1.6735-3.0178 2.152-0.94808 0.28831-5.7025 0.35773-7.4841 0.10927z" stroke="#011400" stroke-width=".57962"/>
    <path d="m74.606 272.93c-0.81957-0.4004-1.7284-1.8697-2.1478-3.4723-0.48199-1.8419-1.0283-2.8279-3.0472-5.4994l-1.369-1.8116 0.65282-0.0112c1.8179-0.0313 2.5462 0.17986 3.53 1.0234 0.77849 0.66748 1.2967 1.5034 1.8636 3.0063 0.5357 1.4201 0.8499 2.8716 1.0238 4.7298 0.15961 1.7053 0.0143 2.2893-0.50628 2.035z" stroke="#011400" stroke-width=".57962"/>
    <g stroke-width="0">
     <path d="m42.463 263.83c0.10559 0.15104 0.18594 0.326 0.28305 0.48556 0.08422 0.15006 0.19969 0.24611 0.32838 0.32056 0.09234 0.0286 0.16751 0.1051 0.25319 0.15223 0.08964 0.0319 0.16669 0.0998 0.2374 0.17589 0.10314 0.15577 0.17576 0.34134 0.26293 0.51234 0.10086 0.17372 0.19759 0.35104 0.29874 0.52458 0.1109 0.17372 0.19768 0.37037 0.2852 0.56438 0.0744 0.18358 0.14068 0.3669 0.18761 0.56515 0.06421 0.21424 0.09219 0.44005 0.12956 0.66307 0.03021 0.16405 0.06984 0.3245 0.09382 0.49051 0.02444 0.14966 0.0588 0.29621 0.09483 0.44181 0.03041 0.1542 0.06308 0.30611 0.11238 0.45212 0.09275 0.35621 0.21166 0.0917-0.64999 0.45591-0.02536 0.01-0.0032-0.0688-0.0061-0.10313-0.0052-0.0589-0.02275-0.19205-0.02989-0.24807-0.028-0.27639-0.0681-0.55083-0.12246-0.82056-0.03397-0.2174-0.09419-0.42434-0.15199-0.63243-0.05358-0.17076-0.11838-0.33497-0.17329-0.50504-0.03894-0.14888-0.07385-0.29882-0.11638-0.44607-0.04941-0.12955-0.0831-0.26508-0.10221-0.40709-0.01627-0.14572-0.06682-0.2772-0.10889-0.41239-0.04844-0.14177-0.12868-0.25494-0.21699-0.35684-0.07637-0.0978-0.17778-0.14749-0.27155-0.21028-0.12511-0.112-0.17844-0.31326-0.23736-0.48668-0.05671-0.1333-0.06216-0.28896-0.10721-0.42667-0.03029-0.10885-0.10576-0.15459-0.17762-0.21233-0.03183-0.0272-0.07869-0.0363-0.10466-0.0753-0.17326-0.26095 0.4288-0.41233 0.66494-0.57087 0.12936 0.0197 0.24734 0.084 0.35246 0.182 0.09359 0.12324 0.19166 0.24544 0.27065 0.38524 0.09067 0.13901 0.15118 0.29497 0.20641 0.46015 0.06169 0.17174 0.09416 0.35631 0.15616 0.5276 0.07701 0.16406 0.16715 0.31411 0.22707 0.49081 0.0067 0.0256 0.01343 0.0513 0.02007 0.0769l-0.66009 0.468c-0.0053-0.0233-0.01069-0.0465-0.01595-0.0698-0.05567-0.17845-0.14787-0.32489-0.22402-0.48846-0.06298-0.17194-0.09728-0.35558-0.15632-0.52951-0.0564-0.15677-0.11049-0.31027-0.2022-0.44022-0.073-0.13093-0.16273-0.24866-0.25404-0.3581-0.10279-0.0812-0.21418-0.13389-0.3363-0.13192 0.21129-0.15597 0.43128-0.29372 0.63386-0.46789 0.01716-0.0138-0.05972-0.0708-0.04091-0.0599 0.03352 0.0197 0.06216 0.0586 0.09762 0.0737 0.08374 0.0702 0.16712 0.1329 0.20124 0.26257 0.04586 0.13882 0.05144 0.2923 0.10275 0.42935 0.05065 0.15478 0.09466 0.33702 0.21337 0.42652 0.10061 0.0643 0.20229 0.12857 0.28291 0.23227 0.09418 0.11357 0.17657 0.24328 0.2306 0.3956 0.04703 0.1406 0.10136 0.27762 0.12088 0.4303 0.01496 0.13704 0.04518 0.26726 0.09419 0.39088 0.0416 0.1467 0.0786 0.29469 0.11288 0.44447 0.05428 0.17194 0.12015 0.33734 0.17307 0.51011 0.05944 0.21087 0.11823 0.42221 0.15196 0.64284 0.05392 0.27256 0.09304 0.54959 0.12482 0.82783 0.0037 0.0272 0.05033 0.35056 0.04688 0.35397-0.5916 0.58646-0.60539 0.86131-0.67604 0.46953-0.04859-0.14947-0.08353-0.30352-0.11409-0.46076-0.03857-0.14927-0.07236-0.3008-0.10055-0.4538-0.02039-0.16642-0.05964-0.32592-0.08935-0.4896-0.03506-0.22085-0.05709-0.44578-0.12426-0.65627-0.04715-0.19028-0.11021-0.36788-0.18051-0.54584-0.08484-0.19127-0.17012-0.38445-0.27833-0.55574-0.10278-0.17471-0.20363-0.35131-0.30433-0.52804-0.08156-0.16228-0.14912-0.34146-0.25247-0.48233-0.07217-0.0657-0.14923-0.11673-0.23234-0.15578-0.08211-0.0554-0.16226-0.11535-0.25012-0.15557-0.13374-0.0897-0.25201-0.20174-0.34202-0.36097-0.09467-0.15321-0.16892-0.3277-0.2821-0.46056l0.64113-0.52019z"/>
     <path d="m68.059 263.92c0.05276 2e-3 0.1027-0.0258 0.15274-0.044 0.04953-0.0197 0.09918-0.0349 0.15074-0.0426 0.02928-8e-3 0.0606 1e-3 0.08939-0.01 0.0113-4e-3 0.02149-0.0118 0.03222-0.0177 0.0053-2e-3 0.01084-4e-3 0.01583-8e-3 0.03001-0.0197 0.03453-0.0272 0.07007-0.0349 0.03426-6e-3 0.06886-6e-3 0.10333-6e-3 0.03607 2e-5 0.07216 2.2e-4 0.10823 3.2e-4 0.04309 4e-3 0.08524-6e-3 0.12788-0.0118 0.04732-6e-3 0.09316-0.0231 0.14062-0.0292 0.04291-0.0138 0.08655-0.0219 0.13068-0.0258 0.04086-4e-3 0.08179-4e-3 0.12272-4e-3 0.04166-8e-5 0.08332 4.7e-4 0.12498 5.3e-4 0.0524 2.4e-4 0.10481 3.7e-4 0.15722 2.8e-4 0.05373-5.2e-4 0.10699 0.0118 0.15925 0.0264 0.04811 0.0138 0.09531 0.0355 0.14192 0.057 0.04349 0.0138 0.08432 0.0369 0.12383 0.0641 0.03966 0.0217 0.07715 0.0495 0.11252 0.0812 0.03784 0.0375 0.07747 0.071 0.12149 0.0948 0.04856 0.0351 0.10209 0.0546 0.15283 0.083 0.06065 0.0327 0.12517 0.0505 0.1879 0.0747 0.04486 0.0158 0.08904 0.0394 0.12962 0.069 0.03615 0.0213 0.06439 0.0572 0.09104 0.0945 0.03458 0.0357 0.06069 0.0852 0.0973 0.11732 0.08735-0.0475 0.0037-2e-3 -0.22081 0.154-0.0012 1e-3 0.0043-1e-4 0.0044-2e-3 3.75e-4 -6e-3 -0.0017-0.0118-0.0032-0.0158-0.0087-0.0274-0.01784-0.0434-0.03029-0.0692-0.05128-0.0905-0.10687-0.17884-0.17233-0.25291-0.0374-0.0455-0.08069-0.0812-0.12146-0.12126-0.01615-0.0178-0.03166-0.0359-0.04833-0.0527l0.22552-0.18299c0.01603 0.0177 0.03154 0.0349 0.04783 0.0515 0.04154 0.0396 0.08252 0.0799 0.11959 0.12659 0.06524 0.0789 0.12159 0.16898 0.17641 0.25989 0.01656 0.0313 0.03651 0.0643 0.04605 0.10095 0.03396 0.13015-0.16567 0.26457-0.24943 0.18812-0.03413-0.0387-0.06376-0.0838-0.098-0.12245-0.02633-0.0335-0.05363-0.0647-0.08762-0.0848-0.03998-0.0266-0.08113-0.0501-0.12484-0.0645-0.06338-0.0241-0.12748-0.0457-0.1887-0.0783-0.05216-0.026-0.10516-0.0491-0.15486-0.0826-0.04422-0.0274-0.08446-0.0625-0.12412-0.0998-0.03542-0.0298-0.07274-0.055-0.11108-0.0777-0.03902-0.0248-0.07923-0.0448-0.12102-0.0605-0.0463-0.0197-0.09235-0.0414-0.1403-0.0536-0.05109-0.0138-0.10325-0.0223-0.15558-0.0207-0.05257-1.2e-4 -0.10513 2e-5 -0.15771 1.2e-4 -0.04189 0-0.08377 2.9e-4 -0.12568 2.9e-4 -0.0403 3e-4 -0.08067 5.3e-4 -0.12088 6e-3 -0.0438 6e-3 -0.08667 0.0177-0.13003 0.0268-0.04679 0.01-0.09293 0.0235-0.14016 0.0286-0.04357 8e-3 -0.08709 0.0118-0.13105 0.01-0.03603-1.2e-4 -0.07203-4e-4 -0.10806 9e-5 -0.03352 1e-3 -0.06746 2e-3 -0.10014 0.0118-0.029 0.0118-0.05447 0.0333-0.0835 0.0453-0.04031 0.0177-0.0824 0.0138-0.1241 0.0213-0.05031 0.01-0.09884 0.0284-0.14783 0.046-0.05231 0.0197-0.10449 0.0422-0.15975 0.0388l0.2167-0.20337z"/>
     <path d="m69.671 263.63c-0.07153-2e-3 -0.14311-2e-3 -0.21466-2e-3 -0.07982 3.7e-4 -0.15964-8e-5 -0.23945 4.1e-4 -0.06753 5.1e-4 -0.13505 1.2e-4 -0.20258 2.8e-4 -0.07425 2.1e-4 -0.14822 4e-3 -0.22175-0.0118-0.07039-8e-3 -0.13627-0.0378-0.2008-0.0737-0.04723-0.0329-0.09574-0.0605-0.149-0.0708-0.05995-8e-3 -0.12033-8e-3 -0.18054-8e-3 -0.06411-8e-5 -0.12786-0.0118-0.1918-0.0177-0.12968-0.0118-0.1087 0.0298 0.17623-0.20153 0.0032-2e-3 0.0078 2e-3 0.0116 4e-3 0.0049 2e-3 0.0099 2e-3 0.01481 4e-3 0.04638 0.01 0.09342 0.01 0.14021 0.01 0.05616 5.1e-4 0.11232 5.1e-4 0.16848 5.1e-4 0.06915-8e-5 0.13829 1e-3 0.20743 5.4e-4 0.06956-6e-3 0.12865 1e-3 0.19654 0.0197 0.05286 0.0199 0.10652 0.0375 0.16082 0.0493 0.0017-1e-3 0.0058-6e-3 0.0044-4e-3 -0.07664 0.0643-0.14952 0.13664-0.22992 0.19284-0.0073 6e-3 -0.01359-0.0118-0.02069-0.0177-0.0099-8e-3 -0.01987-0.0158-0.03018-0.0221-0.03703-0.0241-0.04992-0.0288-0.08959-0.0479-0.08735-0.0436-0.177-0.0775-0.26922-0.0984-0.12023-0.0235-0.21205 0.0998 0.16164-0.1893 0.0047-4e-3 0.05011 6e-3 0.05163 6e-3 0.09934 0.0308 0.20114 0.043 0.30126 0.0682 0.09246 0.025 0.1811 0.0682 0.26922 0.11121 0.07323 0.0361 0.15279 0.0574 0.22028 0.11042 0.0046 0.01 0.02221 0.0383 0.0064 0.0513-0.08109 0.0674-0.16684 0.12521-0.25303 0.18101-0.0053 4e-3 -0.08013 0.01-0.08029 0.01-0.01749 2e-3 -0.03477 6e-3 -0.05219 0.01-0.11177 0.0235-0.22454 0.0353-0.33754 0.0424-0.08483 4e-3 -0.16975 6e-3 -0.25464 6e-3 -0.03199 6e-3 -0.10911-0.0158-0.13246 0.0138 0.07631-0.0641 0.15036-0.1327 0.22894-0.19205 0.0058-4e-3 0.01313 4e-3 0.01978 4e-3 0.0098 2e-3 0.01963 4e-3 0.02949 6e-3 0.03497 6e-3 0.07011 8e-3 0.10534 0.0118 0.08039 4e-3 0.16086 4e-3 0.2413 4e-3 0.07208 3.3e-4 0.14416-5.1e-4 0.21624-2e-3 0.05193-5.1e-4 0.10386 4e-5 0.15579-1.4e-4 0.04306-2.3e-4 0.08614-4.5e-4 0.1292-5.3e-4 0.11745 1e-3 0.12293-0.0552-0.19451 0.20284-0.0043 4e-3 -0.04361-4e-3 -0.0443-4e-3 -0.05972-0.0118-0.12-0.0158-0.18025-0.0177-0.09376-4e-3 -0.18754-4e-3 -0.28132-4e-3 -0.08248-4e-3 -0.16557 8e-3 -0.24784-2e-3 -0.05372-4e-3 -0.10449-0.0158-0.15437-0.0416-0.01175 0.01-0.05045-0.0461-0.03639-0.0584 0.07808-0.0682 0.16157-0.12581 0.2451-0.1822 0.0081-6e-3 0.01833-1e-3 0.02751-2e-3 0.01038-5.4e-4 0.02081-2e-3 0.03119-2e-3 0.06141-4e-3 0.1229-4e-3 0.18437-4e-3 0.06755 8e-3 0.135 0.0209 0.20133 0.0394 0.05077 0.0138 0.09988 0.0363 0.1496 0.0554 0.04282 0.0118 0.0857 0.0237 0.12885 0.0335 0.03877 8e-3 0.07814 0.01 0.11737 0.0118 0.03619 4.9e-4 0.07237 2.6e-4 0.10856 1.6e-4 0.19494 4e-3 -0.02977 0.11969-0.15815 0.22313-0.06428-1e-3 -0.12858 1e-3 -0.19287 1e-3 -0.06724-1.1e-4 -0.13448 2.4e-4 -0.20172 5.4e-4 -0.04624 3.1e-4 -0.09249 4.1e-4 -0.13874 1.9e-4 -0.04528 6e-5 -0.09057 2.2e-4 -0.13584-9e-5 -0.05286 2e-3 -0.1037-0.0197-0.15169-0.046-0.04833-0.0213-0.09521-0.0471-0.14544-0.0599-0.05373-8e-3 -0.10708-0.0197-0.16095-0.0268-0.04372-6e-3 -0.08765-6e-3 -0.13155-8e-3 -0.03163-6e-3 -0.05538 0.0138-0.08231 0.0319-0.04979 0.0317-0.0012-4e-3 -0.05468 0.0379 0.37907-0.29112 0.15022-0.1191 0.07394-0.0266-0.0024 4e-3 -0.0043 8e-3 -0.0075 0.0118-8.08e-4 5.1e-4 -0.0024-4e-3 -0.0017-4e-3 4e-3 -2e-3 0.0085-4e-3 0.01298-4e-3 0.03207-4e-3 0.06343-6e-3 0.0955-0.01 0.07344-0.0138 0.14461-0.0416 0.20986-0.0874 0.08664-0.0603 0.1005-0.0702-0.18294 0.13586-6e-3 4e-3 0.0113-0.01 0.01693-0.0138 0.01313-0.0118 0.0252-0.0246 0.03748-0.0379 0.0085-0.01 0.01627-0.0219 0.01968-0.0367 4.04e-4 -2e-3 -4.05e-4 -8e-3 8.07e-4 -8e-3 0.0032 4e-3 0.0017 0.0178 0.0056 0.0158 0.07974-0.0493 0.15538-0.10885 0.23307-0.16347-0.01023 0.0363-0.0061 0.0747-4.03e-4 0.11181 7e-3 0.0436 0.03865 0.0676 0.04813 0.10884-0.21675 0.18042-0.16205 0.22933-0.2701 0.16209-0.02493-0.0158-0.04958-0.0302-0.07393-0.0473-0.03998-0.0227-0.0624-0.07-0.09168-0.10845-0.0085-0.0118-0.03922-0.045-0.04781-0.0546-0.04369-0.0451-0.09521-0.0743-0.14543-0.1049-0.0064-4e-3 -0.01267-0.01-0.01919-0.0138-0.0099-6e-3 -0.02189-0.0118-0.03058-0.0217-0.06991-0.0793 0.1516-0.14079 0.23456-0.19502 0.0073-4e-3 0.01551 6e-3 0.02326 0.01 0.05436 0.0258 0.10756 0.0554 0.16224 0.0801 0.04699 0.028 0.09718 0.0455 0.1443 0.0726 0.04169 0.0256 0.08593 0.0402 0.13158 0.0469 0.0087 1e-3 0.02177 4e-3 0.03033-2e-3 2e-3 -2e-3 0.0049-0.01 0.0029-8e-3 -0.07576 0.0631-0.14825 0.1329-0.22526 0.19344-0.0037 2e-3 -0.0067-6e-3 -0.01053-8e-3 -0.0055-4e-3 -0.0113-6e-3 -0.017-0.01-0.0497-0.0288-0.1005-0.0544-0.15108-0.0806-0.05389-0.0292-0.1098-0.0495-0.16646-0.0676-0.04019-0.0197-0.08139-0.0321-0.12134-0.0515-0.03676-0.025-0.07472-0.0479-0.11028-0.0757-0.03458-0.0359-0.07472-0.0649-0.10608-0.10569-0.04642-0.13645 0.15759-0.16524 0.23291-0.21679 0.0024-2e-3 0.04877 0.0118 0.0513 0.0118 0.0436 0.0197 0.08645 0.0412 0.13087 0.057 0.04789 0.0292 0.09751 0.0544 0.14763 0.0765 0.05934 0.0329 0.12034 0.057 0.18404 0.0702 0.03122-1e-3 0.06978 0.0205 0.10047 6e-3 0.0053-2e-3 0.0189-0.0177 0.01374-0.0138-0.07236 0.0513-0.14387 0.10431-0.2158 0.15636 0.0024-4e-3 0.0061-8e-3 7e-3 -0.0138 0.0079-0.0489-0.05845-0.10865-0.08322-0.13073-0.07678-0.0493-0.15662-0.0891-0.23547-0.13231-0.07582-0.0465-0.15605-0.0789-0.234-0.11851-0.05613-0.0319-0.11569-0.0459-0.17636-0.0523-0.04755-4e-3 -0.09521-2e-3 -0.1428-2e-3 -0.04676 2e-3 -0.09295 0.0138-0.13966 0.0177-0.04485 4e-3 -0.08985 6e-3 -0.13481 6e-3 -0.04673 0.0118-0.09397 0.0158-0.14134 0.0197-0.05085 4e-3 -0.10093 0.01-0.14696-0.0223-0.03364-0.0339-0.04074-0.0795-0.03485-0.13112 0.0024-8e-3 0.0043-0.0177 0.0076-0.0256 0.0052-0.0118 0.01975-0.0365 0.0292-0.044 0.16248-0.12679 0.17586-0.15538 0.29275-0.20377 0.05772-0.0138 0.1158-0.026 0.17379-0.0387 0.03841-0.0118 0.0724-0.0373 0.10797-0.0582-0.07133 0.0527-0.14253 0.1055-0.214 0.15775-5e-3 4e-3 0.0099-8e-3 0.01481-0.0118 0.0087-8e-3 0.01951-0.0197 0.02871-0.0258 0.08217-0.0596 0.16386-0.12028 0.24717-0.17707 6e-3 -4e-3 0.01328-4e-3 0.01991-6e-3 0.04978-6e-3 0.10057 6e-3 0.15054 0.01 0.05176 2e-3 0.10301 4e-3 0.15429 0.0138 0.04929 0.01 0.09909 0.0118 0.14882 0.0138 0.05212 1e-3 0.10423 2e-3 0.15636 2e-3 0.05561 8e-3 0.11124 0.0158 0.16719 0.0199 0.06385 4e-3 0.12775 4e-3 0.19165 4e-3 0.0739 2.7e-4 0.14737-4e-3 0.22048 0.0118 0.06617 0.01 0.1298 0.0302 0.19254 0.0592 0.06576 0.0361 0.13079 0.0747 0.19528 0.11437 0.07781 0.0497 0.15547 0.0996 0.23469 0.14552 0.06965 0.0459 0.1437 0.0797 0.21407 0.12324 0.01656 0.01 0.03462 0.0229 0.05373 0.0223 0.0064-2.2e-4 0.02371-0.0118 0.01821-8e-3 -0.07265 0.0511-0.14529 0.10214-0.21795 0.15321 0.0029-4e-3 0.0073-6e-3 0.0089-0.01 2e-3 -6e-3 4.04e-4 -0.0118 8.07e-4 -0.0177-0.01328-0.0588-0.05135-0.0968-0.08495-0.13645-0.04486-0.0408-0.09608-0.0666-0.14633-0.0939-0.05271-0.0239-0.1022-0.0572-0.15588-0.0775-0.04205-0.0158-0.08599-0.0229-0.1283-0.0375-0.03078-0.0237-0.0657-0.0319-0.09893-0.0469-0.03578-0.0158-0.0728-0.0158-0.10779-0.0347-0.03522-0.0178-0.07184-0.0298-0.1065-0.0497-0.03938-0.0178-0.0781-0.0363-0.11722-0.0544-0.04149-0.0177-0.08547-0.0213-0.12898-0.0235-0.05152-2e-3 -0.10305-1e-3 -0.15458-1e-3 -0.0499-4e-3 -0.09875 8e-3 -0.14798 0.0158-0.04318 8e-3 -0.08548 0.0205-0.12904 0.0256-0.04526 4e-3 -0.09014 3.4e-4 -0.13386 0.0177-0.04332 0.0178-0.08417 0.0383-0.1292 0.0461-0.06353 0.0197-0.12618 0.0444-0.19003 0.0623-0.04752 0.0233-0.09707 0.0377-0.14523 0.058-0.0514 0.0138-0.1013 0.0317-0.151 0.0528-0.04199 0.0177-0.08521 0.0329-0.1256 0.057-0.09741 0.0525-0.32903 0.23108 0.06543-0.0609-0.1438 0.12206-0.51628 0.3726-0.07845 0.0609 0.0095-6e-3 -0.01789 0.0158-0.0267 0.0239-0.02423 0.0221-0.02739 0.0256-0.0507 0.0487-0.04357 0.0416-0.08336 0.0889-0.12493 0.13369-0.01797 0.0312-0.03215 0.0233-0.0185 0.0138 0.0043-4e-3 0.0098-5.3e-4 0.0145-2e-3 0.0061-2e-3 0.01206-4e-3 0.01818-6e-3 0.03735-0.0138 0.07187-0.0345 0.11027-0.0442 0.0403-0.0138 0.08095-0.0237 0.11951-0.0446 0.02403-0.0177 0.053-0.0158 0.07765-0.03 0.0142-8e-3 0.02694-0.0199 0.0406-0.0294 0.04351-0.0306 0.08932-0.0489 0.13797-0.0588 0.04224-2.2e-4 0.07646-0.0292 0.11292-0.0521-0.37228 0.33565-0.23896 0.17077-0.15202 0.10353 0.1914-0.15558 0.19704-0.1893 0.35999-0.1964 0.05485-2e-3 0.10972-4e-3 0.1646-2e-3 0.059 6e-3 0.11328 0.0292 0.16261 0.0712 0.03283 0.0357 0.06746 0.0712 0.07571 0.12817-0.03554 0.27837-0.25194 0.21055-0.37676 0.17707-0.07463-0.0272-0.14799-0.0584-0.22085-0.0925-0.02044-4e-3 -0.05036-0.0325-0.07211-0.0177-0.0056 4e-3 -0.01752 0.0223-0.01206 0.0197 0.21627-0.14375 0.24704-0.25062 0.20353-0.12285-0.01023 0.0619-0.01829 0.12817-0.01297 0.19186-0.3281 0.19975-0.21241 0.20619-0.24292-0.0207-0.0084-0.0627-0.02036-0.10096-0.05128-0.14868-0.0281-0.0367-0.06753-0.0493-0.09919-0.0797-0.03546-0.0471-0.04122-0.0876-0.0096-0.14 0.08501-0.0943 0.1886-0.15617 0.29016-0.21533 0.02157-0.0118 0.0401-0.0254 0.06292-0.0343 0.03861-0.0158 0.07546-0.0365 0.11395-0.0517 0.03784-0.0118 0.07712-0.0118 0.11577-0.0118 0.03757-5.3e-4 0.07512-3.6e-4 0.11267-2.4e-4 0.03841 4e-5 0.07683 1.8e-4 0.11524 5.2e-4 0.04792-2e-3 0.09629 4e-3 0.14384-4e-3 0.04364-0.01 0.08785-0.0138 0.13207-0.0177 0.03796-2e-3 0.07594-2e-3 0.11392-2e-3 0.04035-1.9e-4 0.08066 4.6e-4 0.12099 5.4e-4 0.06391 5.1e-4 0.12784 1e-3 0.19176 1e-3 0.07408 5.1e-4 0.14816 0 0.22223-2.7e-4 0.06804 1e-5 0.13607 3.5e-4 0.2041-4e-5 0.06121-2e-3 0.1225 4e-3 0.18272 0.0197 0.0544 0.0217 0.1125 0.0385 0.16118 0.0781 0.08068 0.13901-0.16307 0.23936-0.2685 0.21678-0.04891-0.0138-0.09979-0.0223-0.14715-0.0434-0.05298-0.0233-0.10559-0.0463-0.16092-0.058-0.05975-0.01-0.12018-0.0118-0.18038-0.0118-0.05804-2.4e-4 -0.11606 4e-5 -0.17409 5.1e-4 -0.0524 6e-3 -0.10434 0.0158-0.15489 0.0361-0.0521 0.0197-0.10592 0.0276-0.1599 0.0317-0.04976 2e-3 -0.09956 2e-3 -0.14935 4e-3 -0.04064 1.7e-4 -0.08129-2.6e-4 -0.12192-3.2e-4 -0.03914 2e-5 -0.07825 1e-4 -0.11737 1.4e-4 -0.04057-1.6e-4 -0.08115-2e-4 -0.12172-1.2e-4 -0.03772 8e-5 -0.07546 1.4e-4 -0.11318 1.6e-4 -0.03676-4e-5 -0.07352 1.6e-4 -0.11027-1.6e-4 -0.04667 2e-3 -0.09383-6e-3 -0.14009 4e-3 -0.04517 0.01-0.09092 0.0138-0.13665 0.0177-0.03829-4e-3 -0.07146 6e-3 -0.10828 0.0158-0.04644 2e-3 -0.09103 0.0197-0.13606 0.0321-0.06353 0.0379-0.12823 0.072-0.19253 0.10746-0.08002 0.0412-0.15633 0.0925-0.23138 0.1469-0.07782 0.0546-0.25442 0.18082 0.09454-0.072 0.01496-0.01-0.02952 0.0227-0.04407 0.0345-0.02049 0.0158-0.07587 0.0643-0.09506 0.0807-0.10052 0.083-0.19193 0.18219-0.27824 0.2882-0.07007 0.0879-0.13868 0.17648-0.19832 0.27667-0.047 0.0812-0.0906 0.16583-0.12804 0.25511-0.02932 0.0905-0.05303 0.18398-0.07924 0.27624-0.02645 0.0848-0.05802 0.16603-0.0984 0.24117-0.03389 0.0603-0.06312 0.12462-0.09243 0.18871-0.03421 0.0662-0.05685 0.14-0.08077 0.21296-0.02044 0.0605-0.03885 0.12225-0.05799 0.18338-8.07e-4 2e-3 -0.01206 0.0481-0.0037 0.0485 0.0037 2e-4 0.0063-4e-3 0.0096-6e-3 0.0056-2e-3 0.0113-4e-3 0.01701-6e-3 0.0075-4e-3 0.01511-6e-3 0.02258-0.01 0.07063-0.0371 0.23343-0.12422-0.16919 0.12738-0.01267 8e-3 0.02149-0.0239 0.0305-0.038 0.03219-0.0503 0.05363-0.11516 0.07654-0.17254 0.04344-0.1256 0.08701-0.25086 0.13687-0.3724 0.05448-0.12679 0.11959-0.24518 0.18198-0.3656 0.04172-0.0763 0.08706-0.14907 0.133-0.22108 0.03433-0.0515 0.06823-0.10352 0.10818-0.14789 0.14407-0.13487 0.30791-0.22697 0.46607-0.32919 0.08165-0.0455 0.16166-0.096 0.24409-0.13922 0.10516-0.0526 0.20805-0.11219 0.31472-0.15991 0.08599-0.045 0.17556-0.0753 0.2639-0.11062 0.06036-0.0288 0.1231-0.0452 0.18482-0.0674 0.08576-0.0329 0.17306-0.0603 0.26099-0.0818 0.06714-0.0178 0.13549-0.0197 0.20363-0.0201 0.0487-2e-3 0.09722-2e-3 0.14393 0.0197 0.0061 2e-3 0.06192 0.0349 0.06846 0.0386 0.07962 0.0446 0.13041 0.13291 0.18691 0.21344 0.06614 0.0982 0.14751 0.17431 0.22553 0.25527 0.07236 0.11259 0.0376 0.0434-0.21601 0.22528-0.0098 8e-3 -0.02068-0.01-0.03106-0.0158-0.04886-0.0237-0.09545-0.0501-0.14244-0.0797-0.08976-0.0546-0.17655-0.11712-0.25983-0.18673-0.05964-0.0451-0.11734-0.0958-0.18049-0.13231-0.05695-0.0323-0.11376-0.0639-0.17475-0.0808-0.08784 0.0444-0.09252 0.0477 0.19798-0.14217 0.0058-4e-3 -0.0096 0.0118-0.01313 0.0197-0.01481 0.03-0.01404 0.0625-0.01374 0.0966 0.01053 0.081 0.04173 0.15064 0.08838 0.20538 0.0063 6e-3 0.02435 0.0227 0.03465 0.0205 0.0037-5.3e-4 0.01069-0.0118 0.0075-0.01-0.07565 0.0534-0.14944 0.11101-0.22533 0.16386-0.0024 2e-3 0.0032-6e-3 0.0029-0.01-2.74e-4 -8e-3 -0.0029-0.0158-0.0041-0.0233-0.01481-0.071-0.03303-0.13941-0.05503-0.20712-0.01894-0.0643-0.05587-0.11141-0.09759-0.15222-0.0225-0.0225-0.05065-0.027-0.07642-0.0394-0.0267-0.0158-0.01328-8e-3 -0.04041-0.0211-0.04071-0.0207-0.0782-0.0392-0.1164-0.067-0.03025-0.0262-0.04653-0.0631-0.02957-0.10766 0.15193-0.14277 0.18746-0.18871 0.32472-0.19305 0.04311-4.3e-4 0.08623 1.2e-4 0.12934 5.2e-4 0.05297 5.3e-4 0.10594 3.5e-4 0.15891 2.7e-4 0.05314-8e-3 0.10324 0.0138 0.15441 0.0278 0.06543 0.0197 0.13078 0.0373 0.1959 0.0582 0.05202 8e-3 0.09808 0.0343 0.14607 0.0582 0.04309 0.0209 0.08316 0.0475 0.12415 0.0747 0.05355 0.0386 0.11024 0.0694 0.16324 0.10923 0.03752 0.0254 0.07086 0.0596 0.10774 0.0864 0.02859 0.0221 0.06207 0.0302 0.09173 0.0487 0.05482 0.13487 0.02952 0.0459-0.23174 0.18693-0.0053 4e-3 -0.0089-0.01-0.01359-0.0138-0.02241-0.0223-0.04401-0.0453-0.0659-0.0686-0.05015-0.0643-0.09583-0.13388-0.14015-0.20481-0.04048-0.0649-0.08162-0.12876-0.12404-0.19147-0.04082-0.0477-0.08924-0.0818-0.13958-0.10943-0.03001-0.0249-0.06298-0.0359-0.09751-0.0438-0.0024-1e-3 -0.0099-5.1e-4 -0.0076-2e-3 0.30335-0.24705 0.15417-0.23688 0.26902-0.14927 0.01951 0.0158 0.03974 0.028 0.05966 0.042 0.06857 0.045 0.13566 0.0947 0.20764 0.13014 0.05685 0.0237 0.10986 0.0594 0.1652 0.0877 0.06363 0.0457 0.12502 0.0962 0.18903 0.14118 0.06295 0.0438 0.11878 0.10175 0.17095 0.16445 0.0534 0.0623 0.10099 0.13271 0.1567 0.19167 0.0063 4e-3 0.01221 0.01 0.01899 0.0138 0.0072 4e-3 0.01781 8e-3 0.02459-4.3e-4 0.0029-4e-3 0.0081-0.0158 0.0046-0.0138-0.22339 0.15814-0.23493 0.27746-0.22008 0.154-0.01359-0.0647-0.04836-0.12008-0.07538-0.17687-0.02427-0.0416-0.04841-0.0854-0.07982-0.11871-4e-3 -4e-3 -0.0486-0.0434-0.05124-0.0457-0.04663-0.0436-0.10289-0.0621-0.15314-0.096-0.0032-4e-3 -0.0076-8e-3 -0.0095-0.0138-0.0387-0.11358 0.15682-0.14631 0.24459-0.19679 0.0055-4e-3 0.08425 0.0337 0.09189 0.0375 0.05767 0.0424 0.12119 0.0663 0.1826 0.097 0.02835 0.0158 0.09246 0.0591 0.10069 0.10194 0.0017 8e-3 3.88e-4 0.0177 4.05e-4 0.0274-0.08397 0.0554-0.16538 0.11792-0.25193 0.16622-0.0063 4e-3 -0.0577-0.027-0.05907-0.0278-0.03154-0.0177-0.06291-0.0327-0.09561-0.0461-0.05898-0.0296-0.11485-0.0657-0.1676-0.11042-0.05118-0.0432-0.10461-0.0818-0.16235-0.10806-0.04587-0.0219-0.08846-0.0534-0.13326-0.0785-0.0078-4e-3 -0.01591-6e-3 -0.02351-0.01-0.016-0.01-0.03065-0.0215-0.04656-0.0308-0.02334-0.0138-0.04824-0.0219-0.07262-0.0314-0.02-1.4e-4 -0.10322-0.0426-0.11646-0.0365-0.0046 2e-3 -0.0061 0.01-0.0092 0.0138 0.07274-0.0526 0.14338-0.11062 0.21819-0.15814 0.0056-4e-3 -0.0063 0.0158-0.0063 0.0231 1.08e-4 0.0138 0.0037 0.0254 0.0067 0.0375 0.01374 0.0521 0.03757 0.095 0.06199 0.13941 0.0463 0.0793 0.10933 0.13014 0.17645 0.17451 0.1325 0.0887-0.07843 0.14769-0.1999 0.22928-0.0066 4e-3 -0.01435-6e-3 -0.02172-8e-3 -0.0095-2e-3 -0.01902-4e-3 -0.02851-6e-3 -0.07037-0.0158-0.13743-0.0471-0.20428-0.0787-0.0557-0.0272-0.10934-0.0611-0.16556-0.0866-0.03683-2e-3 -0.07016-0.0532-0.10682-0.0414 0.07596-0.0548 0.15085-0.1122 0.22787-0.16445 8.08e-4 -5.3e-4 0.01757 0.0225 0.02658 0.0335 0.03337 0.0416 0.06891 0.0791 0.10495 0.11653 0.0646 0.0718 0.13766 0.12679 0.21126 0.18082 0.04743 0.0294 0.09947 0.042 0.14969 0.0611 0.0024-2e-3 0.01008-8e-3 0.0075-6e-3 -0.25698 0.18792-0.17007 0.23929-0.28216 0.0972-0.04019-0.0461-0.07651-0.10174-0.12404-0.13546-0.04041-0.0276-0.08098-0.056-0.12302-0.0797-0.05288-0.0203-0.10218-0.0519-0.15573-0.069-0.05004-0.0207-0.10058-0.039-0.15013-0.0615-0.05537-0.0199-0.11102-0.04-0.16738-0.055-0.04955-0.0207-0.09918-0.0408-0.14906-0.0603-0.05372-0.0197-0.10998-0.0209-0.1654-0.0231-0.06065-2e-3 -0.12131-1e-3 -0.18196-5.1e-4 -0.04653 5.1e-4 -0.09305 2.1e-4 -0.1396 3.5e-4 -0.03748 6e-3 -0.07121 0.0266-0.10777 0.0371-0.0099 2e-3 -0.03058 4e-3 -0.03978 0.01-0.0055 4e-3 -0.01958 0.0197-0.0142 0.0158 0.07295-0.0544 0.14592-0.10885 0.21888-0.16327-0.0012 2e-3 -0.0032 4e-3 -0.0032 6e-3 4.03e-4 4e-3 0.0037 8e-3 0.0052 0.0118 0.03288 0.0404 0.07498 0.0635 0.11688 0.0836 0.07987 0.0363 0.16187 0.0635 0.24301 0.0947 0.10504 0.0459 0.2106 0.0887 0.31935 0.11713 0.1017 0.027 0.2019 0.0635 0.3019 0.0996 0.06532 0.0229 0.12775 0.0574 0.19331 0.0791 0.03905 0.0158 0.07584 0.0373 0.11556 0.0491 0.03575 0.0229 0.07478 0.0268 0.11388 0.0304 0.04941 4e-3 0.09892 4e-3 0.14839 4e-3 0.03357-6e-3 0.06402 0.0138 0.04102 0.0637-0.0067 0.0138-0.02606 0.0312-0.03578 0.0406-0.10489 0.13961-0.2721 0.18417-0.39974 0.28233-0.0072 6e-3 -0.02832 0.0201-0.02128 0.0158 0.0699-0.0521 0.13978-0.10411 0.20999-0.15538 0.0053-4e-3 -0.01007 0.01-0.01543 0.0138-0.08089 0.0609-0.1616 0.12225-0.24319 0.1816-0.02081 0.01-0.0113 4e-3 -0.02891 0.0177-0.08912 0.0517-0.02714 0.0158 0.20477-0.15341 0.0041-4e-3 -0.0081 6e-3 -0.01191 0.01-7e-3 6e-3 -0.02299 0.0246-0.03029 0.03-0.08216 0.0615-0.16507 0.12127-0.24761 0.182-0.04381 0.026-0.0893 0.0465-0.13638 0.06-0.05138 4e-3 -0.10087 0.0158-0.15096 0.031-0.05886 0.0197-0.1201 0.0177-0.17981 0.0286-0.04848 0.01-0.09728 0.0158-0.1463 0.0199-0.04664 5.1e-4 -0.07796 0.0178-0.1017-0.0455-0.01099-0.0591 0.02103-0.0911 0.05471-0.12166 0.0907-0.0517 0.18626-0.16899 0.29324-0.20501 0.02275-8e-3 0.04415-0.0138 0.06622-0.0247 0.04493-0.0158 0.08889-0.0361 0.13337-0.0544 0.0731-0.0325 0.14882-0.0536 0.22364-0.0785 0.06126-0.0282 0.12325-0.0505 0.1877-0.0615 0.04569-2e-3 0.09031-0.0138 0.13555-0.0217 0.0202-2e-3 0.02128-4.4e-4 0.04015-0.0118 0.0064-4e-3 0.02452-0.0197 0.0183-0.0138-0.07201 0.0529-0.144 0.10589-0.21599 0.15873 0.0063-4e-3 0.0076-2e-3 0.0041-4e-3 -0.03804-0.0215-0.0813-0.0223-0.12217-0.0247-0.07376-2e-3 -0.14757-2e-3 -0.22136-4e-3 -0.11258-1e-3 -0.22516-3e-4 -0.33774 8e-5 -0.07317 4e-3 -0.14706-6e-3 -0.21903 0.0138-0.0602 0.0235-0.1164 0.0605-0.17732 0.0808-0.03983 8e-3 -0.10577 0.0398-0.13502-0.0158-5e-3 -0.01-0.0064-0.0217-0.0096-0.0325-0.0037-0.0883 0.05239-0.14493 0.10255-0.19206 0.17486-0.14158 0.26283-0.21532 0.44225-0.26125 0.08651-0.0219 0.17256-0.0448 0.26021-0.0586 0.09452-0.0138 0.18974-0.0118 0.28463-0.01 0.14166 5.3e-4 0.28332 1e-3 0.42499 1e-3 0.12688-5.1e-4 0.25376-5.1e-4 0.38063-5.1e-4 0.12407 4e-3 0.24714-0.0197 0.37057-0.0319 0.1026-0.01 0.20547-0.0138 0.30834-0.0158 0.08083-2e-3 0.16168-1e-3 0.24251-1e-3 0.059-3.2e-4 0.11801 2.1e-4 0.17701-1e-3 0.0032-2.5e-4 0.01237-4e-3 0.0096-5.3e-4 -0.27428 0.23676-0.14778 0.19423-0.33101 0.16642-0.09988-0.0138-0.20016-0.01-0.3 2e-3 -0.10458 0.0138-0.20923 0.0268-0.31299 0.0483-0.07697 0.0158-0.1545 0.0262-0.23243 0.03-0.07136 2e-3 -0.14277 2e-3 -0.21416 2e-3 -0.08697-5.1e-4 -0.17391-1e-3 -0.26087-1e-3 -0.09289-1.6e-4 -0.18577-8e-5 -0.27865 4.7e-4 -0.0784 2.2e-4 -0.15681 1.8e-4 -0.23522 2.8e-4 -0.05575 2.7e-4 -0.11148 1e-3 -0.16721 1e-3 -0.04656-6e-3 -0.06288-0.058-0.05585-0.1118 0.0024-8e-3 0.0043-0.0138 0.0073-0.0209 0.0056-0.0118 0.01543-0.0241 0.02468-0.0312 0.10727-0.0812 0.17989-0.15439 0.28442-0.20128 0.05317-0.0213 0.10553-0.0446 0.16041-0.0588 0.0436-0.01 0.08796-0.0118 0.13215-0.0118 0.04184-3.6e-4 0.08368 1.2e-4 0.12552 3.1e-4 0.07248 1e-3 0.14497 2e-3 0.21745 2e-3 0.09675 4.6e-4 0.19349-1.5e-4 0.29024-2.9e-4 0.10942-6e-3 0.21403 0.0408 0.31394 0.0935 0.19272 0.11812 0.38982 0.2226 0.5904 0.31627 0.18832 0.0862 0.38368 0.13802 0.57885 0.18969 0.0116 4e-3 0.02371 6e-3 0.0347 0.0118 5e-3 2e-3 0.01676 0.01 0.01236 0.0138-0.07546 0.073-0.154 0.14118-0.23576 0.20176-0.01023 8e-3 -0.02368-5.3e-4 -0.03551-5.3e-4 -0.01765-1.2e-4 -0.03529 4e-5 -0.05299 6e-5 -0.02423-2.2e-4 -0.0485-4.4e-4 -0.07274-5.2e-4 -0.21587-2e-3 -0.43174-4e-3 -0.64762-4e-3 -0.18105-1.8e-4 -0.36209 2e-3 -0.54313 4e-3 -0.1115-1e-4 -0.22275 2.2e-4 -0.33408 8e-3 -0.12517 0.01-0.25054 0.0118-0.37587 0.0138-0.09646 8e-3 -0.19339 0.0217-0.28737 0.0513-0.07497 0.026-0.15038 0.0483-0.22532 0.0743-0.07965 0.031-0.16036 0.057-0.24005 0.0879-0.07349 0.0286-0.14685 0.055-0.21864 0.0907-0.06193 0.0177-0.1176 0.0562-0.17637 0.0856-0.03171 0.0207-0.01568 0.0118-0.04805 0.0282l0.20822-0.21233c0.03139-0.0177 0.01551-0.01 0.04766-0.027 0.05796-0.0311 0.11557-0.0617 0.17603-0.0842 0.07201-0.0335 0.1458-0.0584 0.2188-0.0877 0.08008-0.0294 0.16047-0.0576 0.24046-0.0874 0.07497-0.026 0.15054-0.0491 0.22588-0.0731 0.09464-0.0249 0.19109-0.0392 0.28765-0.0428 0.1253-2e-3 0.25058-6e-3 0.37568-0.0158 0.1111-8e-3 0.22221-8e-3 0.33343-6e-3 0.17825 2e-3 0.3565 4e-3 0.53476 4e-3 0.21816 4.2e-4 0.43634 1e-3 0.65448-4e-3 0.02775-1e-3 0.09902-4e-3 0.13096-8e-3 0.01191-2e-3 0.0445-0.0177 0.03529-8e-3 -0.2215 0.23758-0.127 0.22287-0.23538 0.17312-0.19043-0.0631-0.38312-0.11614-0.56829-0.20351-0.20357-0.0927-0.40362-0.1958-0.60136-0.30765-0.10076-0.0469-0.20407-0.0871-0.31253-0.0798-0.09652-1.6e-4 -0.19304-5.4e-4 -0.28956-3.4e-4 -0.07397 5.1e-4 -0.14795 1e-3 -0.22192 2e-3 -0.04175-1e-4 -0.08348-3.8e-4 -0.12523 2.1e-4 -0.04302 2e-3 -0.08616 4e-3 -0.1283 0.0158-0.05404 0.0158-0.10618 0.04-0.15853 0.0637-0.01313 8e-3 -0.05138 0.0329-0.03902 0.0235 0.38429-0.29346 0.25079-0.19619 0.17387-0.12915-0.01926 0.04-0.0041 0.0558 0.02916 0.0564 0.05483 3.6e-4 0.10966 1e-3 0.16451 1e-3 0.0782 1e-4 0.15642 6e-5 0.23463 2.7e-4 0.09251 5.4e-4 0.18502 5.4e-4 0.27753 5.4e-4 0.08767-2.2e-4 0.17534-2.6e-4 0.26302-5.4e-4 0.07112-2.5e-4 0.14229 3.6e-4 0.21336-4e-3 0.07681-6e-3 0.15331-0.0158 0.22928-0.0313 0.10366-0.0178 0.20776-0.0327 0.312-0.0446 0.10209-0.01 0.20461-0.0138 0.30663 5.3e-4 0.03187 6e-3 0.06507 8e-3 0.09571 0.0223 0.11221 0.0491-0.10888 0.22205-0.20487 0.21097-0.05795-2e-3 -0.11592-1e-3 -0.17388-2e-3 -0.08028-2.4e-4 -0.16057-4.7e-4 -0.24086 6e-5 -0.10174 2e-3 -0.2035 6e-3 -0.30496 0.0158-0.12377 0.0138-0.24744 0.0341-0.37191 0.03-0.12624-1.5e-4 -0.25249-2.3e-4 -0.37873-1e-3 -0.14227-3e-4 -0.28454-5.3e-4 -0.4268 1e-3 -0.0953 2e-3 -0.19087 2e-3 -0.28566 0.0158-0.08732 0.0158-0.17303 0.039-0.25933 0.0613-0.03712 0.0118-0.07458 0.0223-0.11052 0.0391-0.08613 0.0402-0.23477 0.16523 0.1223-0.10688-0.04537 0.0367-0.09855 0.0806-0.11357 0.15104 3.76e-4 4e-3 -8.07e-4 0.01 0.0012 0.0138 0.01701 0.0309 0.09664-4e-3 0.11856-8e-3 0.05998-0.0254 0.11742-0.0613 0.17945-0.0781 0.07231-0.0118 0.14517-4e-3 0.21791-6e-3 0.11282 2e-4 0.22566 5.1e-4 0.33848-1e-3 0.07527-5.1e-4 0.1506-2e-3 0.22584 2e-3 0.04767 4e-3 0.10072 6e-3 0.13813 0.0495 4e-3 8e-3 0.0096 0.0158 0.01206 0.0256 0.02787 0.1118-0.2013 0.20955-0.30318 0.22749-0.0448 8e-3 -0.08953 0.0158-0.13461 0.0215-0.06251 0.0138-0.12247 0.0384-0.18317 0.0613-0.07584 0.0245-0.15169 0.0491-0.22533 0.0834-0.04413 0.0199-0.08942 0.0347-0.13352 0.0548-0.02197 8e-3 -0.04465 0.0158-0.0663 0.0252-0.08513 0.039-0.20938 0.17017 0.16408-0.13073-0.02275 0.0178-0.06482 0.0406-0.0682 0.0777 2e-3 0.0282 0.06758 8e-3 0.08211 0.01 0.04824-4e-3 0.09618-0.0118 0.14402-0.0205 0.05967-8e-3 0.11986-0.0118 0.17814-0.0312 0.05025-0.0138 0.10115-0.0199 0.15161-0.0323 0.04593-0.0158 0.09047-0.0385 0.13325-0.0657-0.06956 0.0526-0.13912 0.10529-0.20868 0.15774 0.0055-4e-3 0.01114-8e-3 0.01636-0.0118 9e-3 -8e-3 0.01526-0.0203 0.02456-0.0274 0.19784-0.15242 0.16038-0.12738 0.25341-0.18831 0.08191-0.0455 0.2047-0.14769-0.18503 0.14276-0.0055 4e-3 0.01053-0.01 0.01591-0.0138 0.23129-0.17608 0.16352-0.12777 0.2656-0.1999 0.02645-0.0177 0.0537-0.0319 0.08049-0.0485 0.08512-0.0524 0.23388-0.17727-0.13456 0.1053 0.0084-6e-3 0.04172-0.0353 0.05036-0.0337 0.0041 5.1e-4 0.01236 4e-3 0.01038 8e-3 -0.0056 0.0118-0.03094-0.0225-0.03389-1e-3 -0.04961-5.1e-4 -0.09924-2e-3 -0.14876-6e-3 -0.0407-4e-3 -0.08007-0.0138-0.11794-0.0343-0.03877-0.0158-0.07584-0.0363-0.11482-0.0505-0.06373-0.0254-0.12522-0.0596-0.18973-0.0822-0.09902-0.0361-0.19802-0.0738-0.29907-0.0994-0.10916-0.031-0.21554-0.0745-0.32208-0.11792-0.08248-0.0313-0.16623-0.0574-0.24741-0.0942-0.0467-0.0247-0.09472-0.0511-0.12847-0.10135-0.08042-0.17688 0.16582-0.22676 0.27615-0.26259 0.03639-0.0138 0.0721-0.0313 0.11073-0.0292 0.04648 3e-5 0.09295-5.2e-4 0.13943-2.6e-4 0.06046 3.5e-4 0.12096 5.3e-4 0.18141 2e-3 0.05737 4e-3 0.11556 6e-3 0.17056 0.0296 0.04903 0.0203 0.09819 0.0402 0.14775 0.058 0.05642 0.0177 0.11253 0.0371 0.168 0.059 0.04989 0.0207 0.1004 0.0388 0.15038 0.0592 0.05352 0.0209 0.1043 0.0515 0.1575 0.0737 0.04274 0.0252 0.08561 0.0513 0.1258 0.0826 0.0465 0.04 0.08419 0.0948 0.12558 0.14315 0.01951 0.0239 0.04297 0.0473 0.05927 0.0751 0.0056 0.01 0.02226 0.0233 0.01481 0.0304-0.20459 0.19765-0.14894 0.21751-0.24507 0.17608-0.05062-0.0217-0.1037-0.0351-0.15044-0.0698-0.07323-0.0566-0.1448-0.11575-0.20986-0.18772-0.04512-0.0455-0.09632-0.0909-0.1348-0.14611-0.0075-0.01-0.02856-0.0258-0.01987-0.0347 0.07129-0.0737 0.15542-0.12363 0.23312-0.18555 0.03728 0.0138 0.07144 0.0392 0.10916 0.0521 0.05505 0.0282 0.10867 0.0611 0.16431 0.0876 0.06532 0.0319 0.13189 0.0603 0.20145 0.0722 0.0099 2e-3 0.01971 4e-3 0.02965 4e-3 0.0066 5e-4 0.02508-6e-3 0.01971-5.1e-4 -0.25338 0.23086-0.1457 0.23143-0.23648 0.16406-0.06883-0.0489-0.13247-0.10767-0.18016-0.18989-0.03288-0.058-0.06956-0.12403-0.08167-0.196-2e-3 -0.0118-0.0093-0.0312-0.0012-0.039 0.07451-0.0728 0.15842-0.12798 0.23764-0.19186 0.04575 4e-3 0.08863 0.0323 0.13372 0.0424 0.05034 0.0197 0.09669 0.0493 0.14493 0.0759 0.04401 0.026 0.08718 0.0544 0.13235 0.0771 0.05781 0.0309 0.11234 0.0712 0.16531 0.11417 0.05128 0.0426 0.10528 0.0781 0.16296 0.10411 0.03239 0.0138 0.06385 0.0321 0.09608 0.0471 0.1134 0.0532 0.1609-0.0495-0.15475 0.18772 0.0044 2e-3 0.0087 8e-3 0.01328 8e-3 0.0017-5.3e-4 4.03e-4 -0.01-0.01595-0.0298-0.02064-0.0239-0.0455-0.0396-0.07121-0.0523-0.06117-0.0304-0.1229-0.0582-0.18135-0.097-0.0305-0.0118-0.03312-0.0158-0.06448-0.0223-0.0085-2e-3 -0.03264 2e-3 -0.0256-4e-3 0.13007-0.11988 0.28388-0.10253 0.20177-0.18456-0.0012-1e-3 2e-3 4e-3 0.0029 4e-3 0.05015 0.0349 0.10608 0.0564 0.15224 0.10135 0.0545 0.0479 0.1013 0.10432 0.13717 0.17648 0.02952 0.0619 0.06587 0.12029 0.0844 0.1895 0.02626 0.18121-0.19846 0.29126-0.29007 0.18594-0.05445-0.0611-0.10038-0.13389-0.1557-0.19403-0.05143-0.0601-0.10681-0.11436-0.16783-0.15735-0.063-0.0451-0.12319-0.0968-0.18823-0.13704-0.05479-0.0294-0.10876-0.0613-0.16441-0.0881-0.07156-0.0392-0.13955-0.0887-0.20912-0.1333-2e-3 -2e-3 -0.05952-0.0406-0.0624-0.0428-0.0079-6e-3 -0.01556-0.0118-0.02314-0.0177-0.0052-4e-3 -0.02-8e-3 -0.01526-0.0138 0.19427-0.2097 0.12934-0.23003 0.22005-0.19858 0.03494 0.0118 0.06788 0.0278 0.09909 0.0515 0.05204 0.0327 0.10235 0.0704 0.14418 0.12285 0.04273 0.0629 0.08352 0.12777 0.12424 0.19285 0.04282 0.0694 0.08709 0.13763 0.13737 0.1983 0.02209 0.0225 0.04369 0.0453 0.06769 0.0643 0.0043 4e-3 0.01737 6e-3 0.01313 0.01-0.23327 0.18417-0.27667 0.0633-0.21728 0.19521-0.03041-0.0177-0.06245-0.0308-0.09118-0.053-0.03586-0.0284-0.06997-0.0603-0.10667-0.087-0.05257-0.039-0.10798-0.0714-0.16149-0.10825-0.04106-0.0258-0.08261-0.0487-0.12488-0.0708-0.04586-0.025-0.09196-0.0457-0.14132-0.0566-0.06527-0.0211-0.13129-0.0371-0.19694-0.0562-0.05011-0.0138-0.0996-0.0268-0.15138-0.0215-0.05295-1.6e-4 -0.10591-5.1e-4 -0.15886-4.1e-4 -0.04326 1.5e-4 -0.08655-5.2e-4 -0.12978 2e-3 -0.02189 2e-3 -0.04515 4e-3 -0.06569 0.0138-0.0044 2e-3 -0.01669 0.0118-0.01267 8e-3 0.07202-0.0558 0.14424-0.11102 0.21635-0.16642-0.03377 0.0158-0.01696 0.0321 0.0055 0.0521 0.03615 0.0264 0.07533 0.0426 0.11354 0.0633 0.04125 0.0205 0.08516 0.0347 0.12081 0.07 0.04375 0.0465 0.08336 0.0978 0.10333 0.168 0.02213 0.0688 0.04231 0.13743 0.05819 0.20895 3.6e-5 1.4e-4 0.01591 0.0544 0.01313 0.057-0.15404 0.14237-0.18258 0.25235-0.28773 0.14572-0.04958-0.0627-0.08223-0.14059-0.09791-0.22814-0.0024-0.0335-5e-3 -0.0473-0.0012-0.0805 0.01728-0.15282 0.16826-0.26334 0.28358-0.2442 0.0608 0.0219 0.11794 0.0558 0.17578 0.0879 0.06312 0.0394 0.12246 0.0885 0.18136 0.13743 0.08176 0.0692 0.16696 0.13172 0.25574 0.18477 0.03792 0.0227 0.05952 0.0375 0.09942 0.0538 0.0142 6e-3 0.02859 0.0118 0.04338 0.0138 0.0079 1e-3 0.02981-0.01 0.02354-4e-3 -0.20634 0.20613-0.16486 0.28161-0.21653 0.17115-0.07556-0.086-0.15711-0.16327-0.22383-0.26172-0.05527-0.0767-0.10821-0.15656-0.18443-0.19882-0.01878-0.01-0.04567-0.0264-0.06556-0.0335-0.04593-0.0158-0.09356-0.0138-0.14061-0.0118-0.067 2e-3 -0.13409 8e-3 -0.19998 0.0239-0.08751 0.0229-0.17443 0.0499-0.25981 0.0836-0.06251 0.0211-0.12426 0.0446-0.18593 0.0696-0.08716 0.0311-0.17333 0.0659-0.25803 0.10707-0.10696 0.0503-0.21089 0.11003-0.31667 0.16406-0.08125 0.0452-0.1619 0.0925-0.24233 0.14-0.04537 0.0284-0.09077 0.0564-0.13561 0.0864-0.01435 0.01-0.05677 0.0394-0.04302 0.0286 0.11218-0.0885 0.26805-0.2011 0.1611-0.12363-0.0142 0.0158-0.02945 0.0282-0.04254 0.0446-0.02395 0.0302-0.04181 0.0688-0.0675 0.0972-0.04535 0.0741-0.09457 0.14434-0.13775 0.22067-0.06329 0.1191-0.12813 0.23725-0.18372 0.36276-0.05068 0.12087-0.09495 0.24569-0.13728 0.37183-0.09423 0.24409-0.1211 0.32695-0.38485 0.42948-0.05996 0.0138-0.09191-6e-3 -0.07584-0.0905 0.01725-0.0629 0.03983-0.12344 0.05799-0.18614 0.02755-0.0716 0.04398-0.15045 0.08048-0.21633 0.02859-0.0651 0.05772-0.13014 0.09067-0.19167 0.04274-0.0718 0.07619-0.15045 0.10356-0.23386 0.0269-0.0927 0.05137-0.18633 0.07655-0.27962 0.037-0.0915 0.0811-0.17766 0.12797-0.26111 0.01038-0.0177 0.04366-0.0747 0.05424-0.0913 0.04436-0.0692 0.0993-0.12501 0.14572-0.19166 0.08504-0.10825 0.17611-0.20931 0.27626-0.29374 0.15808-0.13606 0.32089-0.26232 0.4889-0.37714 0.07608-0.0536 0.15364-0.10312 0.23397-0.14532 0.06518-0.0365 0.13018-0.0741 0.19719-0.10451 0.04576-0.0138 0.09194-0.0241 0.13845-0.0329 0.03622-0.01 0.07268-0.01 0.1095-0.01 0.04554-4e-3 0.09073-0.01 0.13595-0.0177 0.04729-2e-3 0.09466-1e-3 0.14198-2e-3 0.03688-3e-4 0.07373-1.2e-4 0.1106-1.4e-4 0.0376 2e-5 0.07523 6e-5 0.11285 1.4e-4 0.04067 8e-5 0.08133 4e-5 0.122-1.2e-4 0.03897 6e-5 0.07799 1.6e-4 0.11698 3e-4 0.04062 9e-5 0.08124-6e-5 0.12186 2.9e-4 0.04917 8e-5 0.0984 2.4e-4 0.14748-4e-3 0.05306-6e-3 0.10562-0.0177 0.15678-0.0367 0.05227-0.0158 0.10533-0.0272 0.15909-0.0292 0.05781 1.4e-4 0.11563-2.2e-4 0.17344 5.1e-4 0.06118 1e-3 0.12261 4e-3 0.18304 0.0177 0.05581 0.0138 0.10914 0.0385 0.16324 0.0607 0.0475 0.0158 0.096 0.03 0.14482 0.0357 0.01023-5.1e-4 0.02238-1.6e-4 0.03239-4e-3 0.0032-2e-3 0.01206-0.01 0.0092-6e-3 -0.07231 0.059-0.28685 0.13369-0.21184 0.18673 0.0012 1e-3 -0.0017-2e-3 -0.0024-4e-3 -0.04558-0.0373-0.10115-0.0519-0.15278-0.0686-0.05963-0.0118-0.11968-0.0178-0.17996-0.0138-0.06799-4e-4 -0.136-6e-5 -0.204-4e-5 -0.0739-2.8e-4 -0.14778-1e-3 -0.22167-2.8e-4 -0.0646 2e-4 -0.12919 3.6e-4 -0.19378 1e-3 -0.04062 8e-5 -0.08126 5.3e-4 -0.12189 3.7e-4 -0.03757 2e-4 -0.07512 5e-4 -0.11261 4e-3 -0.04392 4e-3 -0.08753 0.0118-0.13116 0.0177-0.04839 4e-3 -0.09687 5.2e-4 -0.14529 2e-3 -0.0387 3.4e-4 -0.07738 3.9e-4 -0.11608 1.2e-4 -0.03732-1.2e-4 -0.07461-4.4e-4 -0.11192 1e-3 -0.03757 2e-3 -0.07577 4e-3 -0.11145 0.0211-0.03735 0.0178-0.07544 0.0331-0.11281 0.0513-0.02068 0.0118-0.04103 0.0233-0.06133 0.0357-0.0076 4e-3 -0.02989 0.0197-0.02265 0.0138 0.17867-0.13743 0.27892-0.20418 0.187-0.14256-0.03146 0.0268-0.04514 0.0471-0.01191 0.086 0.03426 0.0294 0.07561 0.045 0.1027 0.0874 0.03119 0.0479 0.04836 0.10313 0.05662 0.16505 0.0073 0.0467 0.0081 0.0909 0.0085 0.13842 8.8e-5 8e-3 0.0061 0.0215 4.04e-4 0.0264-0.07678 0.0645-0.15955 0.11614-0.23932 0.17411 0.0061-0.0674 2e-3 -0.13625 0.01282-0.20307 0.02702-0.15519 8.07e-4 -0.0457 0.24408-0.23895 0.0058-4e-3 0.01343-4e-3 0.02032-4e-3 0.02609 1e-3 0.05027 0.0197 0.07474 0.0284 0.07107 0.0349 0.14332 0.0655 0.2172 0.0889 0.03325 8e-3 0.06982 0.0211 0.10403 0.0158 0.0076-1e-3 0.0288-0.0138 0.0223-8e-3 -0.20406 0.16938-0.29817 0.17076-0.20347 0.16701 0.01038-0.0402-0.04219-0.0777-0.05961-0.10096-0.04711-0.0363-0.10006-0.0534-0.15494-0.0546-0.05419 1e-4 -0.10843-5.3e-4 -0.16257 4e-3 -0.0269 2e-3 -0.05413 4e-3 -0.08029 0.0138-0.08217 0.0298-0.24121 0.21177 0.18261-0.14355-0.0044 4e-3 -0.0087 6e-3 -0.01313 0.01-0.0043 2e-3 -0.0087 4e-3 -0.01282 8e-3 -0.01931 0.0138-0.0047 6e-3 -0.0231 0.025-0.07845 0.0781-0.27234-0.0603-0.25684 0.19284-0.03691 0.0237-0.07504 0.039-0.11638 0.0438-0.04699 0.0138-0.09098 0.0371-0.13336 0.0667-0.03882 0.0246-0.08046 0.0369-0.12075 0.0566-0.04015 0.0158-0.08116 0.0282-0.12195 0.0418-0.03732 0.0138-0.07265 0.0361-0.11163 0.041-0.01099 3.9e-4 -0.03029 4e-3 -0.04103-4e-3 -0.02996-0.0197-0.02896-0.054-6e-3 -0.0797 0.0418-0.0455 0.08298-0.0921 0.126-0.13547 0.02464-0.0254 0.04958-0.0536 0.07666-0.0747 0.17151-0.13349 0.4511-0.34109 0.05184-0.0428-0.0089 6e-3 0.01765-0.0138 0.02645-0.0199 0.12725-0.0954 0.25222-0.20046 0.38868-0.27387 0.0419-0.0207 0.08483-0.0379 0.12758-0.0552 0.0498-0.0203 0.10084-0.0339 0.15108-0.0523 0.0487-0.0177 0.09649-0.039 0.14549-0.0554 0.06385-0.0201 0.1273-0.0426 0.19139-0.0617 0.04361-0.0138 0.0851-0.0355 0.12891-0.0481 0.04497-0.01 0.09058-8e-3 0.13584-0.0138 0.04314-8e-3 0.08565-0.0203 0.12899-0.0262 0.0496-8e-3 0.09911-0.0158 0.14925-0.0118 0.05189-1.8e-4 0.1038-2e-4 0.15566 2e-3 0.04555 4e-3 0.09112 0.01 0.1339 0.0315 0.03929 0.0197 0.07918 0.0357 0.11829 0.0552 0.0349 0.0177 0.07075 0.0306 0.10553 0.0481 0.03554 0.0138 0.07297 0.0158 0.1078 0.0337 0.03335 0.0118 0.06506 0.029 0.09724 0.0453 0.04328 0.0118 0.08674 0.0229 0.12905 0.0398 0.05283 0.0241 0.10308 0.0562 0.15566 0.0812 0.05295 0.0286 0.1076 0.056 0.15298 0.10254 0.03789 0.0457 0.07695 0.0917 0.09447 0.15676 2e-3 0.0118 0.0055 0.0221 0.0061 0.0335 4.04e-4 0.01 0.0032 0.0231-0.0032 0.0282-0.17042 0.14236-0.1905 0.2281-0.3222 0.14729-0.07059-0.0416-0.14195-0.081-0.21198-0.12442-0.07933-0.0463-0.15696-0.0972-0.23576-0.14493-0.06465-0.0377-0.12856-0.0781-0.19498-0.11042-0.06159-0.0264-0.12449-0.0432-0.1888-0.0546-0.07268-0.01-0.14567-8e-3 -0.21872-8e-3 -0.06442-3.9e-4 -0.12887 1.2e-4 -0.1932-4e-3 -0.0557-4e-3 -0.11096-0.0138-0.16663-0.0178-0.05247-6e-5 -0.10495 5.3e-4 -0.1574-2e-3 -0.05037-2e-3 -0.10066-8e-3 -0.15056-0.0177-0.05076-8e-3 -0.10191-8e-3 -0.1529-0.0118-0.04848-4e-3 -0.09863-0.0158-0.14633 1e-3 -0.09596 0.0432-0.01777 0.01 0.19349-0.15104 0.0049-4e-3 -0.01038 6e-3 -0.01534 0.01-0.01298 0.01-0.01684 0.0158-0.02827 0.0278-0.08074 0.0615-0.16251 0.12048-0.24377 0.18082-0.03546 0.0221-0.07191 0.0418-0.11111 0.0497-0.05737 0.0118-0.11582 0.0207-0.17143 0.0434-0.08933 0.0428-0.19565 0.14 0.16384-0.13409 0.0032-2e-3 -0.04899 0.0389-0.04358 0.0467-0.0085 0.0353-0.01038 0.069 0.01696 0.0909 0.04407 0.0219 0.09199 0.0118 0.13809 0.01 0.04778-4e-3 0.09509-0.0138 0.14284-0.0197 0.04444-5.2e-4 0.0889-2e-3 0.13316-8e-3 0.04703-6e-3 0.09385-0.0177 0.14129-0.0158 0.04789-2e-5 0.09585 7e-5 0.14357 6e-3 0.06175 0.01 0.12175 0.0282 0.17857 0.0617 0.07811 0.0396 0.15802 0.0739 0.23435 0.1193 0.08016 0.0444 0.16131 0.0858 0.23877 0.13802 0.04941 0.0457 0.1077 0.10668 0.10081 0.19364-0.21427 0.16977-0.18679 0.21834-0.36118 0.18082-0.06414-0.0158-0.12562-0.0438-0.18642-0.0747-0.04992-0.0229-0.09922-0.0479-0.14822-0.0739-0.04321-0.0177-0.08536-0.0394-0.12939-0.0534-0.0095-1e-3 -0.02528-4e-3 -0.03554-4e-3 -0.0037 4.9e-4 -0.0145 6e-3 -0.0113 4e-3 0.07129-0.057 0.29358-0.15715 0.2111-0.17667-0.0012-2.4e-4 -0.0017 2e-3 -0.0024 2e-3 0.029 0.0388 0.06668 0.0678 0.10037 0.099 0.03587 0.0247 0.07187 0.0499 0.10937 0.07 0.03853 0.0197 0.07854 0.0325 0.11739 0.0505 0.05723 0.0197 0.1138 0.0408 0.16824 0.0714 0.05138 0.0258 0.1027 0.0521 0.1534 0.0803 0.0067 4e-3 0.01359 8e-3 0.02007 0.0118 0.0049 4e-3 0.01833 8e-3 0.01404 0.0118-0.19323 0.21006-0.13433 0.21909-0.25436 0.19878-0.04654-0.01-0.09115-0.0294-0.13416-0.0548-0.04799-0.0233-0.09597-0.0461-0.14331-0.0716-0.05393-0.0258-0.10682-0.0554-0.16188-0.0771-0.10624-0.0306-0.03308-2e-3 0.18523-0.19837 8.08e-4 -5.1e-4 8.08e-4 2e-3 0.0012 2e-3 0.0032 4e-3 0.0064 6e-3 0.0098 8e-3 6e-3 4e-3 0.01221 8e-3 0.01818 0.0118 0.0061 4e-3 0.01237 8e-3 0.0185 0.0118 0.05089 0.0337 0.10347 0.0649 0.14706 0.11378 0.01911 0.0211 0.03264 0.0351 0.0501 0.0582 0.02719 0.0361 0.04952 0.0775 0.08687 0.0978 0.02459 0.0158 0.04917 0.031 0.07512 0.0432 0.0046 2e-3 9e-3 4e-3 0.01374 6e-3 4e-3 1e-3 0.01511-2e-3 0.01191 1e-3 -0.07101 0.0631-0.1448 0.12087-0.2172 0.18121 0.0012-5.3e-4 0.0032-4.9e-4 0.0032-2e-3 -0.0012-0.0178-0.05086-0.0771-0.04638-0.10273-0.0085-0.0418-0.01282-0.083-0.0087-0.1262 0.0789-0.0592 0.2127-0.2699 0.24427-0.15932 0.0066 0.0231-0.0041 0.0505-0.01267 0.0698-0.01511 0.0225-0.03416 0.0442-0.05407 0.0593-0.2387 0.18161-0.16329 0.13152-0.27101 0.20188-0.06825 0.0394-0.13978 0.0659-0.21423 0.0769-0.03352 4e-3 -0.13563 0.031-0.14096-0.044-4.05e-4 -6e-3 0.0043-0.0118 0.0063-0.0197 0.01846-0.0276 0.03845-0.0471 0.0608-0.0692 0.10014-0.0992 0.18915-0.18102 0.31596-0.25056 0.04677-0.0319 0.09332-0.0645 0.14804-0.0576 0.04398 2e-3 0.08794 4e-3 0.13163 0.0118 0.0545 8e-3 0.10908 0.0178 0.16317 0.0294 0.05048 0.0158 0.09838 0.0428 0.14744 0.0649 0.04709 0.0229 0.09545 0.0391 0.14627 0.0349 0.04535-3.4e-4 0.0907-1.8e-4 0.13606-1e-4 0.04604-1.8e-4 0.09208-6e-5 0.13812 3.9e-4 0.06672 5.1e-4 0.13345 1e-3 0.20018 4.6e-4 0.06443-5.2e-4 0.12994 2e-3 0.1936-0.0118-0.07217 0.0613-0.14682 0.11812-0.21652 0.18398-0.0037 4e-3 0.0095 8e-3 0.0082 0.0138-1.45e-4 5.1e-4 -0.06018-0.0158-0.06308-8e-3 -0.03632 6e-5 -0.07263 2.6e-4 -0.10893-1e-3 -0.03998-2e-3 -0.07993-6e-3 -0.11922-0.0158-0.04358-0.0118-0.08756-0.0207-0.13024-0.0369-0.04857-0.0197-0.09692-0.0406-0.14673-0.0542-0.06559-0.0158-0.13189-0.031-0.19885-0.0331-0.06089 3.1e-4 -0.12189-1.4e-4 -0.18264 6e-3 -0.01023 2e-3 -0.02071 2e-3 -0.03094 4e-3 -0.0089 2e-3 -0.03384 0.0138-0.02633 8e-3 0.06901-0.0596 0.144-0.10707 0.21211-0.16839 0.0043-4e-3 -0.0081-8e-3 -0.01282-0.01-0.0017-1e-3 2e-3 4e-3 0.0032 6e-3 0.0066 4e-3 0.01313 8e-3 0.01971 0.0118 0.0485 0.0213 0.09867 0.029 0.14966 0.0339 0.08081 6e-3 0.1619 2e-3 0.2428 4e-3 0.09484-4e-5 0.18972-1e-3 0.28454 2e-3 0.06123 2e-3 0.12223 8e-3 0.18304 0.0177 0.0081 4e-4 0.01632 1e-3 0.02447 1e-3 0.0067 1e-4 0.0254-6e-3 0.02027-4.7e-4 -0.19621 0.2178-0.12273 0.20392-0.23777 0.20284-0.04268-1e-4 -0.08535-3.2e-4 -0.12803-5.1e-4 -0.05187-1.8e-4 -0.10376 3.9e-4 -0.15562 3e-5 -0.07132-5.3e-4 -0.14262-1e-3 -0.21394-1e-3 -0.08101-4.5e-4 -0.16207 3.5e-4 -0.24302-6e-3 -0.04639-4e-3 -0.09474-6e-3 -0.14003-0.0209-9e-3 -4e-3 -0.03291-4e-3 -0.02621-0.0118 0.06404-0.0777 0.1387-0.1396 0.20805-0.20931 0.04465 1e-3 0.08939-5.3e-4 0.13406 5.1e-4 0.08367 1.8e-4 0.16738 3.6e-4 0.25099-4e-3 0.11249-8e-3 0.22468-0.0205 0.3358-0.045 0.03312-6e-3 0.06645-0.01 0.09934-0.0177 0.01175-2e-3 0.04482-0.0197 0.0349-0.0118-0.05615 0.0495-0.27184 0.15026-0.18736 0.1682 0.0012 2.4e-4 4.03e-4 -2e-3 8.08e-4 -4e-3 -0.06449-0.053-0.14265-0.0722-0.21284-0.10865-0.08738-0.041-0.17504-0.0836-0.26653-0.10687-0.10063-0.0241-0.20219-0.041-0.30286-0.0649-0.01237-2e-3 -0.02513-4e-3 -0.0374-6e-3 -0.0096-4e-3 -0.03558-4e-3 -0.02807-0.0138 0.16343-0.18339 0.15208-0.22085 0.28334-0.18831 0.09165 0.026 0.18105 0.0629 0.26887 0.10549 0.04077 0.0199 0.05531 0.0258 0.09425 0.0493 0.01099 6e-3 0.02152 0.0138 0.03244 0.0213 0.0072 4e-3 0.02778 6e-3 0.02177 0.0138-0.19342 0.22008-0.13655 0.26034-0.21724 0.19928-0.05262-0.0177-0.10635-0.031-0.15867-0.0507-0.06361-0.0158-0.12742-0.0158-0.19209-0.0158-0.06972-1.2e-4 -0.13942 1e-3 -0.20912 1e-3 -0.05624 8e-5 -0.11247 1.8e-4 -0.16871-2e-3 -0.04842-2e-3 -0.09715-2e-3 -0.14496-0.0138-0.0052-1e-3 -0.01053-2e-3 -0.01575-4e-3 -0.0041-1e-3 -0.01571 4.7e-4 -0.01236-4e-3 0.20756-0.21096 0.13268-0.20945 0.26009-0.1958 0.06318 8e-3 0.12636 0.0177 0.1899 0.0158 0.06156 2.8e-4 0.12351-4.5e-4 0.18456 0.0118 0.05363 0.0158 0.102 0.0465 0.15089 0.0781 0.06326 0.0331 0.12769 0.0592 0.1961 0.0672 0.07324 0.0118 0.14676 8e-3 0.22038 8e-3 0.06732 1.4e-4 0.13465-2.8e-4 0.20197 2.7e-4 0.07953 4.8e-4 0.15905 2e-5 0.23858 4.2e-4 0.07304-3.8e-4 0.1461 1.9e-4 0.21912-2e-3l-0.21635 0.20304z"/>
    </g>
   </g>
  </g>
  <text x="60.854168" y="326.10416" fill="#000000" font-family="sans-serif" font-size="10.583px" letter-spacing="0px" stroke-width=".26458" word-spacing="0px" style="line-height:1.25" xml:space="preserve"><tspan x="60.854168" y="335.75964" stroke-width=".26458"/></text>
 </g>
</svg>
