<?xml version="1.0" encoding="UTF-8"?>
<!-- Created with Inkscape (http://www.inkscape.org/) -->
<svg width="300" height="325" version="1.1" viewBox="0 0 79.375 85.99" xmlns="http://www.w3.org/2000/svg" xmlns:cc="http://creativecommons.org/ns#" xmlns:dc="http://purl.org/dc/elements/1.1/" xmlns:rdf="http://www.w3.org/1999/02/22-rdf-syntax-ns#">
 <metadata>
  <rdf:RDF>
   <cc:Work rdf:about="">
    <dc:format>image/svg+xml</dc:format>
    <dc:type rdf:resource="http://purl.org/dc/dcmitype/StillImage"/>
    <dc:title/>
   </cc:Work>
  </rdf:RDF>
 </metadata>
 <g transform="translate(0 -211.01)">
  <path d="m74.65 224.24-13.985 5.4806s-12.473-9.2604-23.057-5.8586-8.8824 16.82-8.8824 16.82-22.49-12.473-24.379-17.198c-1.8899-4.7247 1.5119 15.875 7.9375 21.356 6.4256 5.4806-7.5595-3.5908-7.5595-3.5908s7.3705 15.308 11.528 18.143-8.1265-3.0238-8.1265-3.0238 4.9137 11.717 8.6935 13.229-13.796 6.6146-13.796 6.6146 21.356 8.3155 33.829 7.9375c12.473-0.37797 32.368-26.977 27.781-40.254-3.6432-10.547 12.756-9.8634 13.796-10.583l-12.284-0.94494z" fill="#ff9934" stroke="#000" stroke-width=".26458px"/>
 </g>
</svg>
